<?xml version="1.0" encoding="utf-8"?>
<!-- Generator: Adobe Illustrator 24.3.0, SVG Export Plug-In . SVG Version: 6.00 Build 0)  -->
<svg version="1.1" id="Layer_1" xmlns="http://www.w3.org/2000/svg" xmlns:xlink="http://www.w3.org/1999/xlink" x="0px" y="0px"
	 viewBox="0 0 500 30" style="enable-background:new 0 0 500 30;" xml:space="preserve">
<style type="text/css">
	.st0{fill:#F7F8F9;}
</style>
<g id="XMLID_7080_">
	<g id="XMLID_7083_">
		<g id="XMLID_7102_">
			<path id="XMLID_7250_" class="st0" d="M499.9,0.3H0c11.2,0,20.3,5.5,22,12.7c0.1,0,0.1,0,0.2,0H25c1.8,0,3.4,1,3.4,2.3
				c0,1.2-1.4,2.3-3.4,2.3h-2.8c-0.1,0-0.1,0-0.2,0c-1.6,7.2-10.8,12.7-22,12.7h500c-11.2,0-20.3-5.5-22-12.7c-0.1,0-0.1,0-0.2,0
				H475c-1.8,0-3.4-1-3.4-2.3c0-1.2,1.4-2.3,3.4-2.3h2.8c0.1,0,0.1,0,0.2,0C479.6,5.9,488.8,0.3,499.9,0.3 M63,17.6h-5.4
				c-1.8,0-3.4-1-3.4-2.3c0-1.2,1.4-2.3,3.4-2.3H63c1.8,0,3.4,1,3.4,2.3C66.3,16.6,64.8,17.6,63,17.6 M101,17.6h-5.4
				c-1.8,0-3.4-1-3.4-2.3c0-1.2,1.4-2.3,3.4-2.3h5.4c1.8,0,3.4,1,3.4,2.3C104.2,16.6,102.8,17.6,101,17.6 M138.8,17.6h-5.4
				c-1.8,0-3.4-1-3.4-2.3c0-1.2,1.4-2.3,3.4-2.3h5.4c1.8,0,3.4,1,3.4,2.3C142.2,16.6,140.6,17.6,138.8,17.6 M176.8,17.6h-5.4
				c-1.8,0-3.4-1-3.4-2.3c0-1.2,1.4-2.3,3.4-2.3h5.4c1.8,0,3.4,1,3.4,2.3C180.2,16.6,178.6,17.6,176.8,17.6 M214.7,17.6h-5.4
				c-1.8,0-3.4-1-3.4-2.3c0-1.2,1.4-2.3,3.4-2.3h5.4c1.8,0,3.4,1,3.4,2.3C218,16.6,216.6,17.6,214.7,17.6 M252.8,17.6h-5.4
				c-1.8,0-3.4-1-3.4-2.3c0-1.2,1.4-2.3,3.4-2.3h5.4c1.8,0,3.4,1,3.4,2.3C256.1,16.6,254.6,17.6,252.8,17.6 M290.7,17.6h-5.4
				c-1.8,0-3.4-1-3.4-2.3c0-1.2,1.4-2.3,3.4-2.3h5.4c1.8,0,3.4,1,3.4,2.3C294,16.6,292.5,17.6,290.7,17.6 M328.6,17.6h-5.4
				c-1.8,0-3.4-1-3.4-2.3c0-1.2,1.4-2.3,3.4-2.3h5.4c1.8,0,3.4,1,3.4,2.3C332,16.6,330.5,17.6,328.6,17.6 M366.6,17.6h-5.4
				c-1.8,0-3.4-1-3.4-2.3c0-1.2,1.4-2.3,3.4-2.3h5.4c1.8,0,3.4,1,3.4,2.3C370,16.6,368.4,17.6,366.6,17.6 M404.4,17.6H399
				c-1.8,0-3.4-1-3.4-2.3c0-1.2,1.4-2.3,3.4-2.3h5.4c1.8,0,3.4,1,3.4,2.3C407.8,16.6,406.4,17.6,404.4,17.6 M442.4,17.6H437
				c-1.8,0-3.4-1-3.4-2.3c0-1.2,1.4-2.3,3.4-2.3h5.4c1.8,0,3.4,1,3.4,2.3C445.8,16.6,444.2,17.6,442.4,17.6"/>
		</g>
	</g>
</g>
</svg>
