<?xml version="1.0" encoding="utf-8"?>
<!-- Generator: Adobe Illustrator 24.3.0, SVG Export Plug-In . SVG Version: 6.00 Build 0)  -->
<svg version="1.1" id="Layer_1" xmlns="http://www.w3.org/2000/svg" xmlns:xlink="http://www.w3.org/1999/xlink" x="0px" y="0px"
	 viewBox="0 0 39.7 39.8" style="enable-background:new 0 0 39.7 39.8;" xml:space="preserve">
<style type="text/css">
	.st0{fill:#B86306;}
	.st1{fill:#F8D702;}
	.st2{fill:url(#SVGID_1_);}
	.st3{fill:#FEFFFE;}
</style>
<g>
	<path class="st0" d="M38.9,16.6L38.9,16.6c-0.5-1.5-1.6-2.4-3.1-2.7c-1.7-0.3-3.4-0.5-5-0.7c-1.2-0.2-2.4-0.4-3.3-1.2l0,0l0,0l0,0
		l0,0l0,0l0,0c-0.6-0.6-0.9-1.3-1.3-2c-0.7-1.5-1.5-3-2.2-4.5c-0.5-1.1-1.3-1.8-2.4-2.2c-0.2-0.1-0.4-0.1-0.6-0.2
		c-0.2,0-0.5,0-0.7,0l0,0l0,0c-0.2,0-0.4,0-0.6,0c-1.8,0.4-2.8,1.5-3.5,3.1c-0.7,1.5-1.4,2.9-2.1,4.4c-0.3,0.5-0.6,1-1,1.4l0,0
		c-0.6,0.5-1.3,0.9-2.1,1c-2.1,0.2-4,0.5-6,0.8c-1.7,0.2-3.2,1.3-3.7,2.9l0,0c-0.5,1.6-0.1,3,1,4.2c1.4,1.4,2.8,2.7,4.2,4.1
		c0.5,0.5,0.9,1,1.2,1.7l0,0c0.2,0.8,0.3,1.6,0.1,2.5c-0.4,2-0.7,4-1,6c-0.2,1.5,0.5,2.8,1.8,3.7l0,0c1.4,1,2.8,1,4.3,0.3
		c1.7-0.9,3.4-1.7,5-2.6c0.7-0.4,1.4-0.6,2.2-0.6l0,0c0.6,0,1.2,0.1,1.7,0.4c1.6,0.8,3.3,1.7,4.9,2.6c0.4,0.4,0.8,0.7,1.4,0.7
		c0.1,0,0.2,0,0.3,0c1.2,0.3,2.3,0.1,3.3-0.7l0,0c1.3-0.9,1.9-2.2,1.8-3.8c-0.2-1.6-0.5-3.2-0.8-4.8c-0.2-1.2-0.5-2.3,0-3.5l0,0
		c0.4-0.9,1-1.5,1.7-2.2c1.3-1.2,2.5-2.4,3.7-3.6C39.2,19.7,39.6,17.9,38.9,16.6z"/>
	<g>
		<g>
			<path class="st1" d="M20.8,15.3c-0.6,0-0.6-0.4-0.6-0.8c0-4.6,0-9.2,0-13.8c0.2,0,0.5,0,0.7,0c0.2,0.2,0.4,0.1,0.6,0.2
				c1.1,0.4,1.9,1.1,2.4,2.2c0.7,1.5,1.5,3,2.2,4.5c0.3,0.7,0.7,1.4,1.3,2c0,0.2-0.1,0.3-0.2,0.5c-1.4,1.8-2.8,3.6-4.2,5.5
				c-0.1,0.2-0.3,0.4-0.6,0.4c-0.5-0.1-0.9-0.3-1.4-0.4C21,15.5,20.9,15.5,20.8,15.3C20.8,15.4,20.8,15.4,20.8,15.3z"/>
			<path class="st1" d="M20.1,33.6c0.1-0.2,0.1-0.4,0.1-0.6c0-2.8,0-5.6,0-8.4c0.1-0.2,0.4-0.1,0.5-0.2c0.7-0.1,1.3-0.3,1.9-0.7
				c0.1-0.1,0.3-0.2,0.4-0.2c0.3,0,0.5,0.3,0.6,0.5c0.9,1.3,1.8,2.7,2.7,4c1.7,2.6,3.4,5.2,5.2,7.8c0.1,0.2,0.4,0.4,0.3,0.7
				c-1,0.8-2.1,0.9-3.3,0.7c-0.1,0-0.2,0-0.3,0c-0.6,0-1-0.2-1.4-0.7c-1.6-0.9-3.2-1.7-4.9-2.6C21.3,33.7,20.7,33.6,20.1,33.6z"/>
			<path class="st1" d="M7.7,24.4c2.5-1.1,5.1-2.2,7.6-3.3c0.1,0,0.2-0.1,0.3-0.1c0.2,0.1,0.2,0.2,0.3,0.4c0.2,0.6,0.5,1.1,1,1.6
				c0.1,0.1,0.3,0.3,0.2,0.5c-0.3,0.7-0.8,1.3-1.2,2c-2.4,3.7-4.9,7.4-7.3,11.1c-1.3-0.9-1.9-2.1-1.8-3.7c0.2-2,0.6-4,1-6
				C8,26,7.9,25.2,7.7,24.4z"/>
			<path class="st1" d="M16,17.9c-1.3-0.2-2.5-0.6-3.7-0.9c-3.5-0.9-7-1.7-10.5-2.6c-0.1,0-0.3,0-0.4-0.1c0.5-1.6,1.9-2.7,3.7-2.9
				c2-0.2,3.9-0.5,5.8-0.8c0.8-0.1,1.5-0.5,2.1-1c1.5,2,3,4,4.6,5.9c0.1,0.1,0.2,0.3,0.2,0.5c0,0.1-0.1,0.2-0.2,0.3
				c-0.5,0.4-1,0.9-1.3,1.5C16.2,17.9,16.1,18,16,17.9z"/>
			<path class="st1" d="M38.9,14.3c0.6,1.3,0.3,3.1-0.9,4.3s-2.5,2.4-3.7,3.6c-0.7,0.6-1.3,1.3-1.7,2.2c-0.2,0.1-0.4,0-0.6-0.1
				c-2.3-1-4.6-2-6.8-3c-0.2-0.1-0.5-0.2-0.6-0.5c0-0.1,0-0.3,0-0.4c0.2-0.3,0.1-0.7,0-1s-0.1-0.6-0.2-0.9c-0.1-0.1-0.1-0.3-0.1-0.5
				c0.1-0.4,0.5-0.4,0.8-0.5c1.8-0.5,3.7-0.9,5.5-1.4c2.6-0.6,5.2-1.3,7.8-1.9C38.6,14.3,38.8,14.2,38.9,14.3z"/>
			
				<linearGradient id="SVGID_1_" gradientUnits="userSpaceOnUse" x1="20.3436" y1="8.0957" x2="20.3436" y2="32.1839" gradientTransform="matrix(1 0 0 -1 0 42.35)">
				<stop  offset="0" style="stop-color:#FF9601"/>
				<stop  offset="1" style="stop-color:#F3F917"/>
			</linearGradient>
			<path class="st2" d="M35.8,11.6c-1.7-0.3-3.4-0.5-5-0.7c-1.2-0.2-2.4-0.4-3.3-1.2c-0.1,0.1-0.2,0.2-0.3,0.4
				c-1,1.2-1.9,2.5-2.9,3.7c-0.5,0.7-1,1.4-1.6,2.1c-0.5-0.3-1.1-0.5-1.8-0.6h-0.1c-0.2-0.3-0.3-0.7-0.3-1.1c0-1.9,0-3.8,0-5.8
				c0-2.3,0-4.6,0-6.9c0-0.3,0.1-0.6-0.2-0.8c-0.2,0-0.4,0-0.6,0c-1.9,0.4-3,1.5-3.7,3.1c-0.7,1.5-1.4,2.9-2.1,4.4
				c-0.3,0.5-0.6,1-1,1.4c-0.1,0.3,0.1,0.5,0.3,0.7c1.1,1.5,2.2,2.9,3.4,4.4c0.3,0.4,0.6,0.9,1,1.3c-0.2,0.1-0.4,0.2-0.5,0.4
				c-0.5,0.5-0.9,1-1.2,1.5c-0.1-0.1-0.3-0.1-0.4-0.2c-2.3-0.6-4.7-1.1-7-1.7c-2.1-0.5-4.2-1-6.2-1.5c-0.3-0.1-0.6-0.2-0.8,0
				c-0.5,1.6-0.1,3,1,4.2c1.4,1.4,2.8,2.7,4.2,4.1c0.5,0.5,0.9,1,1.2,1.7c0.2,0.2,0.4,0,0.6-0.1c2.3-1,4.6-2,7-3
				c0.1,0,0.2-0.1,0.3-0.1c0.3,0.9,0.8,1.7,1.5,2.3c-0.1,0.1-0.2,0.3-0.3,0.4c-0.7,1.1-1.4,2.1-2.1,3.2c-2,2.9-3.9,5.9-5.8,8.8
				c-0.1,0.2-0.3,0.4-0.2,0.7c1.4,1,2.8,1,4.3,0.3c1.7-0.9,3.4-1.7,5-2.6c0.7-0.4,1.4-0.6,2.2-0.6c0.3-0.2,0.3-0.5,0.3-0.7
				c0-2.5,0-5.1,0-7.6c0-0.2,0-0.3-0.1-0.5c1.1-0.1,2-0.4,2.8-1.1c0.1,0.1,0.2,0.2,0.2,0.3c1.2,1.7,2.3,3.5,3.5,5.2
				c1.6,2.5,3.2,4.9,4.9,7.4c1.3-0.9,1.9-2.2,1.8-3.8c-0.2-1.6-0.5-3.2-0.8-4.8c-0.2-1.2-0.5-2.3,0-3.5c-2.5-1.1-5-2.2-7.6-3.3
				c-0.1,0-0.2-0.1-0.3-0.1c0.1-0.5,0.2-1,0.2-1.5c0-0.2-0.1-0.4-0.1-0.6c-0.1-0.4-0.2-0.7-0.3-1c0.1-0.1,0.2-0.1,0.4-0.1
				c0.8-0.2,1.7-0.4,2.5-0.6c3.7-0.9,7.5-1.8,11.2-2.8c0.1,0,0.3,0,0.4-0.2C38.4,12.8,37.3,11.8,35.8,11.6z"/>
		</g>
		<polygon class="st1" points="20.4,1.5 20.2,18.9 27.5,9.6 23.8,10.7 		"/>
		<path class="st1" d="M1.3,14.4l18.8,4.5l-7.3-9.4c0,0,1.3,4.7,1,4.5C13.7,13.8,1.3,14.4,1.3,14.4z"/>
		<polygon class="st1" points="38.8,14.4 20.2,18.9 32.6,24.4 32,21.4 		"/>
		<path class="st1" d="M7.7,24.4l12.5-5.5L8.6,36.4c0,0,1.2-8.3,1.2-8.6C9.8,27.6,10.7,23.6,7.7,24.4z"/>
		<polygon class="st1" points="20.1,33.6 20.2,18.9 31.7,36.5 24.3,33.1 		"/>
	</g>
	<path class="st3" d="M4.9,14.3c-0.2-0.2-0.2-0.5,0-0.7c0.6-0.7,1.6-1.1,2.6-1.2c1.5-0.2,3.1-0.4,4.6-0.7h0.3c0.3,0,0.5-0.1,0.8-0.3
		c0.2-0.1,0.5-0.1,0.6,0.1l0,0c0.2,0.2,0.2,0.5,0,0.7c0,0.1-0.1,0.1-0.1,0.2l0,0l0,0c-0.7,0.6-1.3,0.9-1.9,1h-0.3
		c-1.5,0.2-3.1,0.5-4.6,0.7c-0.4,0.1-0.9,0.2-1.3,0.4C5.3,14.5,5.1,14.5,4.9,14.3L4.9,14.3z"/>
	<path class="st3" d="M34.5,16L34.5,16L34.5,16c0.2,0.4,0.1,0.8-0.1,1.2c-0.2,0.4-0.1,0.9,0.3,1.2l0,0c0.4,0.3,1,0.1,1.3-0.3
		c0.5-1,0.6-2.1,0.1-3.1l0,0c-0.5-1.4-1.5-2.3-3-2.5c-1.3-0.2-2.6-0.4-3.9-0.6h-0.3c-1-0.1-1.8-0.3-2.5-0.9c-0.4-0.4-0.7-0.9-1-1.5
		c-0.3-0.7-0.7-1.4-1-2.1c-0.1-0.2-0.2-0.3-0.2-0.5C24,6.4,23.5,6.1,23,6.3s-0.8,0.8-0.5,1.3l0.4,0.8c0.3,0.7,0.7,1.4,1,2.1
		c0.3,0.6,0.6,1.1,1,1.6v0.1c0,0.1,0.1,0.2,0.2,0.2l0,0h0.1c0.8,0.6,1.7,0.8,2.8,1h0.3c1.3,0.2,2.6,0.3,3.9,0.6
		C33.4,14.3,34.1,14.9,34.5,16z"/>
	<path class="st3" d="M13.5,11.1"/>
</g>
</svg>
