<?xml version="1.0" encoding="utf-8"?>
<!-- Generator: Adobe Illustrator 24.3.0, SVG Export Plug-In . SVG Version: 6.00 Build 0)  -->
<svg version="1.1" id="Layer_1" xmlns="http://www.w3.org/2000/svg" xmlns:xlink="http://www.w3.org/1999/xlink" x="0px" y="0px"
	 viewBox="0 0 39.8 40.2" style="enable-background:new 0 0 39.8 40.2;" xml:space="preserve">
<style type="text/css">
	.st0{fill:#BB7C2A;}
	.st1{fill:url(#SVGID_1_);}
	.st2{fill:#F9D207;}
	.st3{fill:url(#SVGID_2_);}
	.st4{fill:#FFFFFF;}
	.st5{fill:url(#SVGID_3_);}
	.st6{fill:url(#SVGID_4_);}
	.st7{fill:url(#SVGID_5_);}
	.st8{fill:#ECEEF0;}
</style>
<ellipse class="st0" cx="24.7" cy="18.3" rx="14.3" ry="15.5"/>
<linearGradient id="SVGID_1_" gradientUnits="userSpaceOnUse" x1="24.6511" y1="11.2483" x2="24.6511" y2="42.8626" gradientTransform="matrix(1 0 0 -1 0 43.05)">
	<stop  offset="0" style="stop-color:#F9A31A"/>
	<stop  offset="1" style="stop-color:#F9EC23"/>
</linearGradient>
<path class="st1" d="M18,29.8c5,2.6,9.8,2.5,14.5-0.8c5-3.4,7.3-10,6.1-16.3C37.3,6.3,32.5,1.4,26.7,0.6c-8-1.2-15.2,4.8-16.2,13.5
	c-0.1,1.4-0.1,2.8,0.1,4.3c0.1,0.3,0.4,0.3,0.7,0.3c3.6,1,6.1,3.9,6.6,7.9c0.1,0.7,0,1.5,0,2.3C17.9,29.3,17.8,29.6,18,29.8z"/>
<g>
	<path class="st2" d="M10.5,15.1c0-0.5,0-0.9,0.1-1.4c0,0.2-0.1,0.2-0.1,0.4c-0.1,1.4-0.1,2.8,0.1,4.3c0.1,0.2,0.1,0.2,0.3,0.3
		C10.6,17.5,10.5,16.3,10.5,15.1z"/>
	<path class="st2" d="M24.7,30.6c-2.5,0-4.8-0.7-6.9-1.9c0,0.1,0,0.2,0,0.3c0.1,0.3,0,0.6,0.2,0.8c5,2.6,9.8,2.5,14.5-0.8
		c4.2-2.9,6.6-8,6.4-13.4C38.7,23.9,32.4,30.6,24.7,30.6z"/>
</g>
<g>
	
		<linearGradient id="SVGID_2_" gradientUnits="userSpaceOnUse" x1="17.8151" y1="12.6377" x2="17.8151" y2="13.1981" gradientTransform="matrix(1 0 0 -1 0 43.05)">
		<stop  offset="0" style="stop-color:#F9A31A"/>
		<stop  offset="1" style="stop-color:#F9EC23"/>
	</linearGradient>
	<path class="st3" d="M17.8,29.8c0,0.1,0,0.2,0,0.3c0,0.1,0,0.2,0.1,0.2C17.9,30.2,17.9,30.1,17.8,29.8z"/>
	<path class="st4" d="M36,9.1c0,0.2-0.2,0.5-0.4,0.5c-0.1,0-0.2-0.1-0.3-0.2c0-0.1-0.1-0.1-0.1-0.2l0,0c-2.1-3.1-5.2-5.1-8.7-5.6
		c-5-0.7-9.7,1.6-12.4,5.6c0,0.1-0.1,0.1-0.1,0.2c-0.1,0.1-0.2,0.2-0.3,0.2c-0.1,0-0.2-0.1-0.3-0.2c0-0.1-0.1-0.1-0.1-0.2l0,0
		c0-0.1,0-0.1,0-0.2c0-0.1,0-0.2,0-0.2l0,0c0-0.1,0.1-0.1,0.1-0.2c2.6-4.8,7.7-7.7,13.2-6.8c4,0.6,7.4,3.1,9.5,6.8
		c0,0.1,0.1,0.2,0.1,0.2C36,8.9,36,9,36,9.1z"/>
</g>
<linearGradient id="SVGID_3_" gradientUnits="userSpaceOnUse" x1="9.3631" y1="3.8542" x2="9.3631" y2="12.4893" gradientTransform="matrix(1 0 0 -1 0 43.05)">
	<stop  offset="0" style="stop-color:#782E11"/>
	<stop  offset="1" style="stop-color:#B4441A"/>
</linearGradient>
<path class="st5" d="M18,31.6c0.3-2.5,0-4.7-1.2-6.8c-1.4-2.3-3.3-3.8-5.8-4.3c-0.1,0-0.2-0.1-0.3-0.1c-1.8-0.1-3.7,0-5.3,1
	c-3.6,2-5.4,6.4-4.5,10.7c1,4.3,4.4,7.4,8.6,7.4s7.5-3,8.6-7.2C17.9,31.9,17.9,31.8,18,31.6z"/>
<linearGradient id="SVGID_4_" gradientUnits="userSpaceOnUse" x1="9.3631" y1="1049.3702" x2="9.3631" y2="1029.9781" gradientTransform="matrix(1 0 0 1 0 -1012)">
	<stop  offset="0" style="stop-color:#EF5323"/>
	<stop  offset="1" style="stop-color:#F16322"/>
</linearGradient>
<path class="st6" d="M18,29.8c0.3-2.5,0-4.7-1.2-6.8c-1.4-2.3-3.3-3.8-5.8-4.3c-0.1,0-0.2-0.1-0.3-0.1c-1.8-0.1-3.7,0-5.3,1
	C1.8,21.6,0,26,0.8,30.3c1,4.3,4.4,7.4,8.6,7.4s7.5-3,8.6-7.2C17.9,30.1,17.9,30.1,18,29.8z"/>
<linearGradient id="SVGID_5_" gradientUnits="userSpaceOnUse" x1="24.7951" y1="1015.7601" x2="24.7951" y2="1039.797" gradientTransform="matrix(1 0 0 1 0 -1012)">
	<stop  offset="0" style="stop-color:#67352B"/>
	<stop  offset="1" style="stop-color:#955824"/>
</linearGradient>
<path class="st7" d="M25,17c0.7,0,1.5,0.1,2.3-0.1c2-0.4,3.6-2.6,3.6-4.8c0-2.4-1.6-4.5-3.7-4.9c-0.2,0-0.5-0.1-0.7-0.1
	c-0.6,0.1-0.7-0.2-0.7-0.7c0-1.4,0-1.4-1.3-1.4c-0.6,0-0.8,0.2-0.7,0.9c0,0.4,0.1,1-0.1,1.3c-0.2,0.3-0.7,0.2-1.1,0.3
	c-2.1,0.3-3.7,2.3-3.9,4.7c0,0.3,0,0.6,0.4,0.6h0.1c0.4,0,0.9,0.1,1.3,0c0.4-0.2,0.2-0.7,0.4-1.2c0.6-1.3,1.5-2.1,2.9-2.1
	c0.8,0,1.6,0,2.4,0c1.5,0,2.6,1.2,2.6,2.8c0,1.5-1.1,2.7-2.6,2.7c-1.2,0-2.5-0.1-3.7,0.1c-2.3,0.3-4,2.5-3.8,5
	c0.2,2.5,2.1,4.6,4.4,4.7c0.6,0,0.7,0.2,0.7,0.7c0,1.4,0,1.4,1.3,1.4c0.6,0,0.8-0.1,0.8-0.7c-0.1-0.4-0.1-1,0-1.3
	c0.2-0.3,0.7-0.2,1.1-0.3c2.1-0.6,3.8-2.6,3.9-4.9c0-0.4-0.1-0.6-0.4-0.6h-0.1c-0.4,0-0.9-0.1-1.2,0c-0.5,0.2-0.2,0.7-0.4,1.2
	c-0.6,1.3-1.5,2.1-2.8,2.1c-0.8,0-1.7,0-2.5,0c-1.5,0-2.6-1.3-2.6-2.8s1.2-2.7,2.7-2.7C23.8,17,24.3,17,25,17z"/>
<path class="st8" d="M4.2,24c0.1,0.1,0.2,0.3,0.4,0.5c2.5,2.7,5,5.4,7.5,8.1c0.9,1,0.9,1,1.7,0c0.7-0.7,0.7-0.7,0-1.5
	c-2.6-2.8-5.1-5.5-7.7-8.4c-0.4-0.5-0.7-0.5-1,0c-0.2,0.3-0.5,0.6-0.7,1C4.4,24,4.2,24,4.2,24z"/>
<path class="st8" d="M10.5,24c0,1,0.7,1.8,1.6,1.8s1.6-0.8,1.6-1.8c0-1-0.7-1.8-1.6-1.8C11.2,22,10.5,22.8,10.5,24z"/>
<path class="st8" d="M6.7,33.9c1,0,1.6-0.7,1.6-1.8c0-1-0.7-1.8-1.6-1.8s-1.6,0.8-1.6,1.8C5.1,33.2,5.6,33.9,6.7,33.9z"/>
<path class="st4" d="M36,9.9c0,0.2-0.2,0.5-0.4,0.5c-0.1,0-0.2-0.1-0.3-0.2c0-0.1-0.1-0.1-0.1-0.2l0,0c0-0.1,0-0.1,0-0.2
	c0-0.2,0.2-0.5,0.4-0.5c0.1,0,0.2,0.1,0.3,0.2C36,9.6,36,9.7,36,9.9C36,9.7,36,9.8,36,9.9z"/>
<path class="st4" d="M14.1,9.9c0,0.1,0,0.2-0.1,0.2c0,0.1-0.1,0.1-0.1,0.2c-0.1,0.1-0.2,0.2-0.3,0.2c-0.1,0-0.2-0.1-0.3-0.2
	c0-0.1-0.1-0.1-0.1-0.2l0,0c0-0.1,0-0.1,0-0.2c0-0.1,0-0.2,0-0.2l0,0c0-0.1,0.1-0.1,0.1-0.2c0.1-0.1,0.2-0.2,0.4-0.2
	s0.2,0.1,0.3,0.2C14,9.7,14.1,9.8,14.1,9.9C14.1,9.7,14.1,9.8,14.1,9.9z"/>
<ellipse class="st4" cx="36.4" cy="11.6" rx="0.4" ry="0.5"/>
</svg>
