<?xml version="1.0" encoding="utf-8"?>
<!-- Generator: Adobe Illustrator 24.3.0, SVG Export Plug-In . SVG Version: 6.00 Build 0)  -->
<svg version="1.1" id="Layer_1" xmlns="http://www.w3.org/2000/svg" xmlns:xlink="http://www.w3.org/1999/xlink" x="0px" y="0px"
	 viewBox="0 0 41.3 38.2" enable-background="new 0 0 41.3 38.2" xml:space="preserve">
<g>
	<g>
		<path fill="#F7FC7D" d="M41.4,18.5C41.1,8.3,33.5,0.1,24.3,0.1c-0.7,0-1.4,0.1-2.1,0.2c-1.5-0.1-3.1-0.2-4.9-0.2
			C7.8,0.1,0.1,8.6,0.1,19.1c0,10.5,7.7,19.1,17.1,19.1c1.8,0,3.4-0.1,4.9-0.2c0.7,0.1,1.4,0.2,2.1,0.2c9.5,0,17.1-8.5,17.1-19.1
			C41.4,18.9,41.4,18.7,41.4,18.5z"/>
		<g>
			<linearGradient id="SVGID_1_" gradientUnits="userSpaceOnUse" x1="17.5973" y1="0.3756" x2="17.5973" y2="38.4837">
				<stop  offset="0" style="stop-color:#C77D06"/>
				<stop  offset="0.1427" style="stop-color:#CB8206"/>
				<stop  offset="0.2897" style="stop-color:#D89005"/>
				<stop  offset="0.438" style="stop-color:#EFAA03"/>
				<stop  offset="0.5204" style="stop-color:#FFBD00"/>
				<stop  offset="0.6494" style="stop-color:#D58C04"/>
				<stop  offset="0.7863" style="stop-color:#B56905"/>
				<stop  offset="0.9077" style="stop-color:#A25606"/>
				<stop  offset="1" style="stop-color:#9C5006"/>
			</linearGradient>
			<ellipse fill="url(#SVGID_1_)" cx="17.2" cy="19.1" rx="17.1" ry="19.1"/>
			<path fill="#F7FC7D" d="M41.4,19.1c0,10.5-7.7,19.1-17.1,19.1S7.1,29.7,7.1,19.1c0-0.2,0-0.4,0-0.6C7.4,8.3,15,0.1,24.3,0.1
				s16.8,8.2,17.1,18.5C41.4,18.7,41.4,18.9,41.4,19.1z"/>
			<linearGradient id="SVGID_2_" gradientUnits="userSpaceOnUse" x1="24.2709" y1="37.6071" x2="24.2709" y2="-2.5162">
				<stop  offset="0" style="stop-color:#F3FA2F"/>
				<stop  offset="1" style="stop-color:#F8FC89"/>
			</linearGradient>
			<ellipse fill="url(#SVGID_2_)" cx="24.3" cy="19.1" rx="16.4" ry="18.3"/>
			<ellipse fill="#F7FC7D" cx="24.3" cy="19.1" rx="13.5" ry="15.5"/>
			<linearGradient id="SVGID_3_" gradientUnits="userSpaceOnUse" x1="24.2708" y1="18.7175" x2="24.2708" y2="26.1033">
				<stop  offset="0" style="stop-color:#F5BD20"/>
				<stop  offset="1" style="stop-color:#F5BD20;stop-opacity:0"/>
			</linearGradient>
			<path fill="url(#SVGID_3_)" d="M41.4,19.1c0,10.5-7.7,19.1-17.1,19.1S7.1,29.7,7.1,19.1c0-0.2,0-0.4,0-0.6h34.2
				C41.4,18.7,41.4,18.9,41.4,19.1z"/>
			<g>
				<defs>
					<ellipse id="XMLID_1569_" cx="24.3" cy="19.1" rx="17.1" ry="19.1"/>
				</defs>
				<clipPath id="XMLID_2_">
					<use xlink:href="#XMLID_1569_"  overflow="visible"/>
				</clipPath>
				
					<radialGradient id="SVGID_4_" cx="-19.783" cy="1164.95" r="10.2858" gradientTransform="matrix(0.4962 -0.9229 0.9229 0.4962 -1037.1182 -591.9869)" gradientUnits="userSpaceOnUse">
					<stop  offset="0" style="stop-color:#FFFDF1"/>
					<stop  offset="1" style="stop-color:#FFFDF1;stop-opacity:0"/>
				</radialGradient>
				<path clip-path="url(#XMLID_2_)" fill="url(#SVGID_4_)" d="M33.4-5.4c5.1,2.7,6.9,9.3,4,14.7c-2.9,5.4-9.4,7.5-14.5,4.8
					c-5.1-2.7-6.9-9.3-4-14.7C21.9-6,28.3-8.2,33.4-5.4z"/>
			</g>
			<linearGradient id="SVGID_5_" gradientUnits="userSpaceOnUse" x1="18.7678" y1="33.0822" x2="21.7595" y2="25.6458">
				<stop  offset="0" style="stop-color:#FDFEE1"/>
				<stop  offset="1" style="stop-color:#FDFEE1;stop-opacity:0"/>
			</linearGradient>
			<ellipse fill="url(#SVGID_5_)" cx="24.1" cy="19.9" rx="12.1" ry="14"/>
			<linearGradient id="SVGID_6_" gradientUnits="userSpaceOnUse" x1="24.2708" y1="33.2635" x2="24.2708" y2="4.3385">
				<stop  offset="0" style="stop-color:#855308"/>
				<stop  offset="1" style="stop-color:#E2BB4B"/>
			</linearGradient>
			<ellipse fill="url(#SVGID_6_)" cx="24.3" cy="19.1" rx="12.1" ry="14"/>
			<g>
				<defs>
					<ellipse id="XMLID_1566_" cx="24.3" cy="19.1" rx="12.1" ry="14"/>
				</defs>
				<clipPath id="XMLID_3_">
					<use xlink:href="#XMLID_1566_"  overflow="visible"/>
				</clipPath>
				
					<radialGradient id="XMLID_4_" cx="49.3045" cy="-52.1998" r="12.5367" gradientTransform="matrix(1.3124 0 0 1.3124 -40.4364 76.5001)" gradientUnits="userSpaceOnUse">
					<stop  offset="0" style="stop-color:#F5D987"/>
					<stop  offset="0.4172" style="stop-color:#F3D785;stop-opacity:0.5828"/>
					<stop  offset="0.5674" style="stop-color:#EDCF7C;stop-opacity:0.4326"/>
					<stop  offset="0.6745" style="stop-color:#E3C26E;stop-opacity:0.3255"/>
					<stop  offset="0.7612" style="stop-color:#D5B05B;stop-opacity:0.2388"/>
					<stop  offset="0.8354" style="stop-color:#C49B46;stop-opacity:0.1646"/>
					<stop  offset="0.901" style="stop-color:#AF812F;stop-opacity:9.899288e-02"/>
					<stop  offset="0.9589" style="stop-color:#986718;stop-opacity:4.107273e-02"/>
					<stop  offset="1" style="stop-color:#855308;stop-opacity:0"/>
				</radialGradient>
				
					<ellipse id="XMLID_1567_" opacity="0.3" clip-path="url(#XMLID_3_)" fill="url(#XMLID_4_)" cx="24.3" cy="8" rx="15.2" ry="17.6"/>
			</g>
			<linearGradient id="SVGID_7_" gradientUnits="userSpaceOnUse" x1="37.4845" y1="18.5803" x2="19.9935" y2="18.5803">
				<stop  offset="0" style="stop-color:#5D3807"/>
				<stop  offset="1" style="stop-color:#855308;stop-opacity:0"/>
			</linearGradient>
			<path fill="url(#SVGID_7_)" d="M24.3,5.1c-2.1,0-4.1,0.6-5.9,1.8c1.4-0.7,3-1.1,4.7-1.1c6.7,0,12.1,6.3,12.1,14
				c0,5.3-2.5,9.9-6.2,12.3c4.3-2.1,7.4-7.1,7.4-12.9C36.4,11.4,30.9,5.1,24.3,5.1z"/>
		</g>
	</g>
</g>
</svg>
