<svg
    xmlns="http://www.w3.org/2000/svg"
    viewBox="0 0 30 29"
    id="vector">
    <path
        id="path"
        d="M 15.8 29 C 23.6 29 29.9 22.7 29.9 14.9 C 29.9 7 23.6 0.7 15.8 0.7 C 8 0.7 1.5 7 1.5 14.8 L 1.5 14.8 C 1.5 22.7 7.9 29 15.8 29"
        fill="#dc7e27"/>
    <path
        id="path_1"
        d="M 29.8 16 C 29.8 16.3 29.7 16.7 29.7 17 L 1.7 17 C 1.7 16.7 1.6 16.3 1.6 16 C 1.6 16 29.8 16 29.8 16 Z M 7.2 26.1 C 7.7 26.5 8.2 26.8 8.7 27.1 L 22.8 27.1 C 23.3 26.8 23.8 26.5 24.3 26.1 L 7.2 26.1 Z M 28.7 20.3 C 28.8 20 29 19.6 29.1 19.3 L 2.3 19.3 C 2.4 19.6 2.5 20 2.7 20.3 L 28.7 20.3 Z M 26.8 23.7 C 27.1 23.4 27.3 23 27.5 22.7 L 4 22.7 C 4.2 23 4.5 23.4 4.7 23.7 L 26.8 23.7 Z M 29.8 13.6 C 29.8 13.3 29.7 12.9 29.7 12.6 L 1.7 12.6 C 1.6 12.9 1.6 13.3 1.6 13.6 L 29.8 13.6 Z M 8.7 2.6 C 8.2 2.9 7.7 3.2 7.2 3.6 L 24.3 3.6 C 23.8 3.2 23.3 2.9 22.8 2.6 L 8.7 2.6 Z M 4.8 6 C 4.5 6.3 4.3 6.7 4.1 7 L 27.6 7 C 27.4 6.7 27.1 6.3 26.9 6 L 4.8 6 Z M 29.1 10.3 C 29 10 28.9 9.6 28.7 9.3 L 2.7 9.3 C 2.6 9.6 2.4 10 2.3 10.3 L 29.1 10.3 Z"
        fill="#c86f28"/>
    <path
        id="path_2"
        d="M 0.7 14.8 C 0.7 22.6 7 28.9 14.8 28.9 C 22.6 28.9 28.9 22.6 28.9 14.8 C 28.9 7 22.7 0.6 14.8 0.6 L 14.8 0.6 C 7 0.6 0.7 7 0.7 14.8 L 0.7 14.8"
        fill="#f2cd1c"/>
    <path
        id="path_3"
        d="M 14.7 0.9 C 7 0.9 0.7 7.1 0.6 14.9 L 0.6 14.8 C 0.5 7 6.6 0.5 14.5 0.3 C 22.4 0.1 28.8 6.2 29 14.1 C 29 14.4 29 14.6 29 14.9 L 29 15 C 28.8 7.1 22.5 0.9 14.7 0.9"
        fill="#e4e521"/>
    <path
        id="path_4"
        d="M 1 11.6 C 1.1 11.3 1.1 11 1.2 10.8 L 11.8 13.6 L 2.4 8 C 2.5 7.8 2.6 7.5 2.8 7.3 L 12.4 12.8 L 4.6 5 C 4.8 4.8 5 4.6 5.2 4.4 L 13 12.2 L 7.4 2.8 C 7.7 2.6 7.9 2.5 8.2 2.3 L 13.7 11.9 L 10.8 1.2 C 11.1 1.1 11.4 1 11.6 1 L 14.4 11.6 L 14.4 0.6 L 15.3 0.6 L 15.3 11.5 L 18.1 1 C 18.4 1.1 18.7 1.1 18.9 1.2 L 16.1 11.7 L 21.6 2.2 L 22.4 2.6 L 16.9 12.1 L 24.6 4.5 C 24.8 4.7 25 4.9 25.2 5.1 L 17.5 12.8 L 27 7.3 C 27.1 7.5 27.3 7.8 27.4 8.1 L 17.9 13.6 L 28.4 10.8 C 28.5 11.1 28.5 11.4 28.6 11.6 L 18 14.4 L 28.9 14.4 C 28.9 14.5 28.9 14.7 28.9 14.8 C 28.9 14.9 28.9 15.1 28.9 15.2 L 18.1 15.2 L 28.6 18 C 28.5 18.3 28.5 18.6 28.4 18.8 L 17.9 16 L 27.4 21.5 C 27.3 21.8 27.1 22 27 22.3 L 17.5 16.8 L 25.2 24.5 C 25 24.7 24.8 24.9 24.6 25.1 L 16.9 17.4 L 22.4 26.9 L 21.6 27.3 L 16.1 17.8 L 19 28.2 C 18.7 28.3 18.5 28.4 18.2 28.4 L 15.3 18 L 15.3 28.9 L 14.4 28.9 L 14.4 18 L 11.6 28.6 C 11.3 28.5 11 28.5 10.8 28.4 L 13.6 17.8 L 8.1 27.4 L 7.4 27 L 12.9 17.4 L 5 25.2 C 4.8 25 4.6 24.8 4.4 24.6 L 12.2 16.8 L 2.6 22.3 C 2.5 22.1 2.4 21.8 2.3 21.6 L 11.9 16.1 L 1.2 18.9 C 1.1 18.6 1 18.3 1 18.1 L 11.6 15.3 L 0.6 15.3 C 0.6 15.2 0.6 15 0.6 14.9 C 0.6 14.8 0.6 14.6 0.6 14.5 L 11.6 14.5 L 1 11.6 Z"
        fill="#e4e521"/>
    <path
        id="path_5"
        d="M 2 15.1 C 2 22.2 7.8 28 14.8 28 C 21.8 28 27.6 22.2 27.6 15.1 C 27.6 8 21.9 2.3 14.8 2.3 C 7.8 2.3 2 8 2 15.1 L 2 15.1"
        fill="#e4e521"/>
    <path
        id="path_6"
        d="M 2 14.8 C 2 21.9 7.8 27.6 14.8 27.6 C 21.8 27.6 27.6 21.8 27.6 14.8 C 27.6 7.8 21.9 2 14.8 2 C 7.8 2 2 7.8 2 14.8 L 2 14.8"
        fill="#e9a822"/>
    <path
        id="path_7"
        d="M 4.4 15.3 C 4.4 9.4 9 4.7 14.9 4.7 C 20.8 4.7 25.3 9.4 25.3 15.2 C 25.3 21 20.6 25.7 14.8 25.7 C 9 25.8 4.4 21.1 4.4 15.3 M 4.8 15.3 C 4.8 20.8 9.3 25.2 14.7 25.2 C 20.1 25.2 24.6 20.7 24.6 15.3 C 24.6 9.9 20.1 5.4 14.7 5.4 L 14.7 5.4 C 9.3 5.3 4.8 9.8 4.8 15.3"
        fill="#dc7e27"/>
    <path
        id="path_8"
        d="M 4.4 14.8 C 4.4 8.9 9 4.2 14.9 4.2 C 20.8 4.2 25.4 8.9 25.4 14.7 C 25.4 20.5 20.7 25.2 14.9 25.2 L 14.9 25.2 C 9 25.3 4.4 20.6 4.4 14.8 M 4.8 14.8 C 4.8 20.3 9.3 24.7 14.7 24.7 C 20.1 24.7 24.6 20.2 24.6 14.8 C 24.6 9.4 20.2 4.9 14.7 4.9 C 9.3 4.8 4.8 9.3 4.8 14.8"
        fill="#f2cd1c"/>
    <path
        id="path_9"
        d="M 14.7 2.9 C 7.9 2.9 2.3 8.3 2 15.2 C 2 15.1 2 14.9 2 14.7 C 2 7.6 7.7 2 14.8 2 C 21.9 2 27.5 7.7 27.5 14.7 C 27.5 14.8 27.5 15 27.5 15.2 C 27.4 8.3 21.6 2.9 14.7 2.9"
        fill="#dc7e27"/>
    <path
        id="path_10"
        d="M 13.8 14.6 L 16.2 14.6 L 14.9 11.5 Z"
        fill="#e9a822"/>
</svg>
