<?xml version="1.0" encoding="utf-8"?>
<!-- Generator: Adobe Illustrator 25.0.1, SVG Export Plug-In . SVG Version: 6.00 Build 0)  -->
<svg version="1.1" id="Layer_1" xmlns="http://www.w3.org/2000/svg" xmlns:xlink="http://www.w3.org/1999/xlink" x="0px" y="0px"
	 viewBox="0 0 370.5 71.7" style="enable-background:new 0 0 370.5 71.7;" xml:space="preserve">
<style type="text/css">
	.st0{enable-background:new    ;}
	.st1{fill:#FFFFFF;}
</style>
<g class="st0">
	<path class="st1" d="M17,15.3V2.7h1v11.7h7.4v0.9C25.4,15.3,17,15.3,17,15.3z"/>
</g>
<g class="st0">
	<path class="st1" d="M34.7,15.3v-1.7c-0.6,1.1-1.6,1.9-3.3,1.9c-2.3,0-3.7-1.6-3.7-3.8V6.1h0.9v5.5c0,1.9,1.1,3.1,2.9,3.1
		s3.2-1.4,3.2-3.3V6.1h0.9v9.2C35.6,15.3,34.7,15.3,34.7,15.3z"/>
	<path class="st1" d="M43,15.5c-2.6,0-4.7-2.2-4.7-4.8l0,0c0-2.6,2.1-4.8,4.7-4.8c1.7,0,2.8,0.8,3.7,1.7L46,8.2
		c-0.8-0.8-1.7-1.5-3.1-1.5c-2.1,0-3.7,1.7-3.7,3.9l0,0c0,2.2,1.7,4,3.8,4c1.3,0,2.3-0.7,3.1-1.5l0.6,0.5
		C45.8,14.8,44.7,15.5,43,15.5z"/>
	<path class="st1" d="M55.9,15.3l-3.6-4.5l-2.2,2.3v2.2h-0.9V2.2h0.9V12l5.7-5.9H57l-4,4.1l4.1,5.1C57.1,15.3,55.9,15.3,55.9,15.3z"
		/>
	<path class="st1" d="M63.2,15.6c-0.8,1.9-1.7,2.6-3.1,2.6c-0.7,0-1.2-0.1-1.8-0.4l0.3-0.8c0.5,0.2,0.9,0.3,1.6,0.3
		c1,0,1.6-0.6,2.3-2.2l-4.5-9h1l3.8,8.2l3.3-8.2h1L63.2,15.6z"/>
	<path class="st1" d="M74.5,2.7h8.4v0.7l-5.7,11.9h-1l5.7-11.7h-7.3L74.5,2.7L74.5,2.7z"/>
	<path class="st1" d="M96.9,15.5c-4,0-6.3-2.9-6.3-6.5l0,0c0-3.4,2.5-6.5,6.2-6.5c2.1,0,3.3,0.6,4.6,1.7l-0.6,0.7
		c-1-0.9-2.1-1.5-4.1-1.5c-3.1,0-5.2,2.6-5.2,5.6l0,0c0,3.3,2,5.7,5.4,5.7c1.6,0,3.1-0.7,4-1.4V9.6h-4.2V8.8h5.1v4.9
		C100.7,14.6,99,15.5,96.9,15.5z"/>
	<path class="st1" d="M111.5,15.3v-1.5c-0.6,0.9-1.8,1.7-3.5,1.7s-3.5-1-3.5-2.9l0,0c0-1.9,1.6-3,4-3c1.3,0,2.2,0.2,3,0.4V9.6
		c0-1.9-1.1-2.8-3-2.8c-1.1,0-2,0.3-2.9,0.7l-0.3-0.8c1-0.5,2-0.8,3.3-0.8c2.4,0,3.8,1.2,3.8,3.6v5.7h-0.9V15.3z M111.6,10.8
		c-0.8-0.2-1.8-0.4-3.1-0.4c-1.9,0-3,0.9-3,2.1l0,0c0,1.3,1.3,2.1,2.7,2.1c1.9,0,3.5-1.2,3.5-2.8L111.6,10.8L111.6,10.8z"/>
	<path class="st1" d="M128.6,15.3V9.8c0-2-1-3.1-2.7-3.1c-1.5,0-2.9,1.2-2.9,3.2v5.3h-0.9V9.8c0-1.9-1-3.1-2.7-3.1s-2.9,1.4-2.9,3.3
		v5.3h-0.9V6.1h0.9v1.6c0.6-1,1.4-1.9,3.1-1.9c1.6,0,2.6,0.9,3.1,2c0.6-1,1.6-2,3.3-2c2.2,0,3.5,1.5,3.5,3.8v5.6h-0.9V15.3z"/>
	<path class="st1" d="M136.6,14.7c1.4,0,2.4-0.6,3.2-1.4l0.6,0.5c-0.9,1-2,1.7-3.8,1.7c-2.4,0-4.5-1.9-4.5-4.8l0,0
		c0-2.7,1.9-4.8,4.4-4.8c2.6,0,4.2,2.1,4.2,4.8l0,0c0,0.1,0,0.2,0,0.3H133C133.2,13.4,134.8,14.7,136.6,14.7z M139.7,10.3
		c-0.1-1.9-1.2-3.6-3.3-3.6c-1.8,0-3.2,1.5-3.4,3.6H139.7z"/>
	<path class="st1" d="M146.2,15.5c-1.3,0-2.8-0.5-3.8-1.3l0.5-0.7c1,0.8,2.1,1.2,3.3,1.2s2.2-0.7,2.2-1.7l0,0c0-1.1-1.2-1.5-2.4-1.8
		c-1.5-0.4-3.2-0.9-3.2-2.5l0,0c0-1.5,1.2-2.5,3-2.5c1.1,0,2.3,0.4,3.3,1l-0.5,0.7c-0.8-0.6-1.9-0.9-2.8-0.9c-1.3,0-2.1,0.7-2.1,1.6
		l0,0c0,1,1.2,1.4,2.6,1.8c1.5,0.4,3,1,3,2.6l0,0C149.3,14.4,147.9,15.5,146.2,15.5z"/>
	<path class="st1" d="M163.8,15.3v-1.5c-0.6,0.9-1.8,1.7-3.5,1.7s-3.5-1-3.5-2.9l0,0c0-1.9,1.6-3,4-3c1.3,0,2.2,0.2,3,0.4V9.6
		c0-1.9-1.1-2.8-3-2.8c-1.1,0-2,0.3-2.9,0.7l-0.3-0.8c1-0.5,2-0.8,3.3-0.8c2.4,0,3.8,1.2,3.8,3.6v5.7h-0.9V15.3z M163.9,10.8
		c-0.8-0.2-1.8-0.4-3.1-0.4c-1.9,0-3,0.9-3,2.1l0,0c0,1.3,1.3,2.1,2.7,2.1c1.9,0,3.5-1.2,3.5-2.8L163.9,10.8L163.9,10.8z"/>
	<path class="st1" d="M174.9,15.3V9.8c0-1.9-1.1-3.1-2.9-3.1c-1.8,0-3.2,1.4-3.2,3.3v5.3h-0.9V6.1h0.9v1.7c0.6-1.1,1.6-1.9,3.3-1.9
		c2.3,0,3.7,1.6,3.7,3.8v5.6C175.8,15.3,174.9,15.3,174.9,15.3z"/>
	<path class="st1" d="M186.6,15.3v-2.1c-0.8,1.2-2,2.3-3.8,2.3c-2.2,0-4.5-1.8-4.5-4.8l0,0c0-3,2.3-4.8,4.5-4.8c1.8,0,3,1,3.8,2.2
		V2.2h0.9v13.1H186.6z M186.6,10.7c0-2.4-1.8-3.9-3.7-3.9c-2,0-3.6,1.5-3.6,3.9l0,0c0,2.4,1.7,4,3.6,4
		C184.8,14.7,186.6,13.1,186.6,10.7L186.6,10.7z"/>
</g>
<g class="st0">
	<path class="st1" d="M207,15.3l-1.6-3.5H198l-1.6,3.5h-1l5.9-12.7h0.9l5.9,12.7H207z M201.7,3.6l-3.3,7.3h6.6L201.7,3.6z"/>
</g>
<g class="st0">
	<path class="st1" d="M223.1,15.3V9.8c0-2-1-3.1-2.7-3.1c-1.5,0-2.9,1.2-2.9,3.2v5.3h-0.9V9.8c0-1.9-1-3.1-2.7-3.1
		c-1.6,0-2.9,1.4-2.9,3.3v5.3h-0.9V6.1h0.9v1.6c0.6-1,1.4-1.9,3.1-1.9c1.6,0,2.6,0.9,3.1,2c0.6-1,1.6-2,3.3-2c2.2,0,3.5,1.5,3.5,3.8
		v5.6h-0.9V15.3z"/>
	<path class="st1" d="M234,15.3v-1.7c-0.6,1.1-1.6,1.9-3.3,1.9c-2.3,0-3.7-1.6-3.7-3.8V6.1h0.9v5.5c0,1.9,1.1,3.1,2.9,3.1
		c1.8,0,3.2-1.4,3.2-3.3V6.1h0.9v9.2C234.9,15.3,234,15.3,234,15.3z"/>
	<path class="st1" d="M241.2,15.5c-1.3,0-2.8-0.5-3.8-1.3l0.5-0.7c1,0.8,2.1,1.2,3.3,1.2s2.2-0.7,2.2-1.7l0,0c0-1.1-1.2-1.5-2.4-1.8
		c-1.5-0.4-3.2-0.9-3.2-2.5l0,0c0-1.5,1.2-2.5,3-2.5c1.1,0,2.3,0.4,3.3,1l-0.5,0.7c-0.8-0.6-1.9-0.9-2.8-0.9c-1.3,0-2.1,0.7-2.1,1.6
		l0,0c0,1,1.2,1.4,2.6,1.8c1.5,0.4,3,1,3,2.6l0,0C244.4,14.4,243,15.5,241.2,15.5z"/>
	<path class="st1" d="M251.1,14.7c1.4,0,2.4-0.6,3.2-1.4l0.6,0.5c-0.9,1-2,1.7-3.8,1.7c-2.4,0-4.5-1.9-4.5-4.8l0,0
		c0-2.7,1.9-4.8,4.4-4.8c2.6,0,4.2,2.1,4.2,4.8l0,0c0,0.1,0,0.2,0,0.3h-7.6C247.7,13.4,249.3,14.7,251.1,14.7z M254.2,10.3
		c-0.1-1.9-1.2-3.6-3.3-3.6c-1.8,0-3.2,1.5-3.4,3.6H254.2z"/>
	<path class="st1" d="M270.7,15.3V9.8c0-2-1-3.1-2.7-3.1c-1.5,0-2.9,1.2-2.9,3.2v5.3h-0.9V9.8c0-1.9-1-3.1-2.7-3.1
		c-1.6,0-2.9,1.4-2.9,3.3v5.3h-0.9V6.1h0.9v1.6c0.6-1,1.4-1.9,3.1-1.9c1.6,0,2.6,0.9,3.1,2c0.6-1,1.6-2,3.3-2c2.2,0,3.5,1.5,3.5,3.8
		v5.6h-0.9V15.3z"/>
	<path class="st1" d="M278.7,14.7c1.4,0,2.4-0.6,3.2-1.4l0.6,0.5c-0.9,1-2,1.7-3.8,1.7c-2.4,0-4.5-1.9-4.5-4.8l0,0
		c0-2.7,1.9-4.8,4.4-4.8c2.6,0,4.2,2.1,4.2,4.8l0,0c0,0.1,0,0.2,0,0.3h-7.6C275.3,13.4,276.9,14.7,278.7,14.7z M281.8,10.3
		c-0.1-1.9-1.2-3.6-3.3-3.6c-1.8,0-3.2,1.5-3.4,3.6H281.8z"/>
	<path class="st1" d="M292.3,15.3V9.8c0-1.9-1.1-3.1-2.9-3.1s-3.2,1.4-3.2,3.3v5.3h-0.9V6.1h0.9v1.7c0.6-1.1,1.6-1.9,3.3-1.9
		c2.3,0,3.7,1.6,3.7,3.8v5.6C293.2,15.3,292.3,15.3,292.3,15.3z"/>
	<path class="st1" d="M299.4,15.5c-1.4,0-2.6-0.8-2.6-2.5V7h-1.3V6.1h1.3V3.2h0.9v2.9h3.2v0.8h-3.2v5.9c0,1.3,0.8,1.8,1.8,1.8
		c0.5,0,0.8-0.1,1.4-0.3v0.8C300.5,15.4,300,15.5,299.4,15.5z"/>
	<path class="st1" d="M314.9,15.5c-3.6,0-6.3-2.9-6.3-6.5l0,0c0-3.6,2.7-6.5,6.3-6.5c2.3,0,3.6,0.8,4.9,2l-0.7,0.7
		c-1.1-1.1-2.4-1.9-4.2-1.9c-3,0-5.3,2.5-5.3,5.6l0,0c0,3.2,2.3,5.7,5.3,5.7c1.8,0,3.1-0.7,4.3-2l0.6,0.6
		C318.5,14.6,317.1,15.5,314.9,15.5z"/>
	<path class="st1" d="M326.1,15.5c-2.7,0-4.7-2.2-4.7-4.8l0,0c0-2.6,2-4.8,4.7-4.8s4.7,2.2,4.7,4.8l0,0
		C330.9,13.3,328.9,15.5,326.1,15.5z M329.9,10.7c0-2.2-1.7-4-3.8-4c-2.2,0-3.7,1.8-3.7,3.9l0,0c0,2.2,1.7,4,3.8,4
		C328.4,14.7,329.9,12.9,329.9,10.7L329.9,10.7z"/>
	<path class="st1" d="M338.5,6.9c-2.1,0-4,1.6-4,4.6v3.8h-0.9V6.1h0.9v2.6c0.7-1.6,2.3-2.8,4.1-2.8L338.5,6.9L338.5,6.9z"/>
	<path class="st1" d="M345.5,15.5c-1.8,0-3-1-3.8-2.2v4.9h-0.9V6.1h0.9v2.1c0.8-1.2,2-2.3,3.8-2.3c2.2,0,4.5,1.8,4.5,4.8l0,0
		C349.9,13.7,347.7,15.5,345.5,15.5z M349,10.7c0-2.4-1.7-4-3.6-4s-3.7,1.6-3.7,3.9l0,0c0,2.4,1.8,3.9,3.7,3.9
		C347.4,14.7,349,13.2,349,10.7L349,10.7z"/>
	<path class="st1" d="M352.3,15.3v-1.5h1.2v1.5H352.3z"/>
</g>
<g class="st0">
	<path class="st1" d="M80.1,33.4c-1.6,0-2.8-0.5-3.9-1.6l0.5-0.5c1.1,1,2.1,1.5,3.5,1.5c1.5,0,2.5-0.8,2.5-1.9l0,0
		c0-1-0.5-1.6-2.8-2.1c-2.4-0.5-3.3-1.3-3.3-2.8l0,0c0-1.5,1.3-2.6,3.2-2.6c1.4,0,2.4,0.4,3.4,1.2l-0.5,0.6
		c-0.9-0.8-1.8-1.1-2.9-1.1c-1.4,0-2.4,0.8-2.4,1.8l0,0c0,1,0.5,1.7,2.9,2.1c2.3,0.5,3.2,1.3,3.2,2.7l0,0
		C83.4,32.3,82,33.4,80.1,33.4z"/>
	<path class="st1" d="M89,24.2v9.1h-0.7v-9.1h-3.4v-0.7h7.6v0.7C92.5,24.2,89,24.2,89,24.2z"/>
	<path class="st1" d="M94.6,33.3v-9.8h0.7v9.1h5.8v0.7H94.6z"/>
	<path class="st1" d="M107.5,33.3v-9.8h0.7v9.1h5.8v0.7H107.5z"/>
	<path class="st1" d="M116,24.3v-0.9h0.9v0.9H116z M116.1,33.3v-7.1h0.7v7.1H116.1z"/>
	<path class="st1" d="M122.6,33.5c-2.1,0-3.6-1.7-3.6-3.7l0,0c0-2,1.6-3.7,3.6-3.7c1.3,0,2.2,0.6,2.9,1.3l-0.5,0.5
		c-0.6-0.6-1.3-1.2-2.4-1.2c-1.6,0-2.9,1.4-2.9,3.1l0,0c0,1.7,1.3,3.1,2.9,3.1c1,0,1.8-0.5,2.4-1.2l0.5,0.4
		C124.8,32.9,124,33.5,122.6,33.5z"/>
	<path class="st1" d="M130.3,32.8c1.1,0,1.9-0.5,2.5-1.1l0.5,0.4c-0.7,0.8-1.6,1.3-3,1.3c-1.9,0-3.5-1.5-3.5-3.7l0,0
		c0-2.1,1.5-3.7,3.4-3.7c2,0,3.3,1.6,3.3,3.7l0,0c0,0.1,0,0.1,0,0.3h-5.9C127.6,31.8,128.9,32.8,130.3,32.8z M132.7,29.4
		c-0.1-1.4-0.9-2.8-2.6-2.8c-1.4,0-2.5,1.2-2.6,2.8H132.7z"/>
	<path class="st1" d="M140.9,33.3v-4.2c0-1.5-0.8-2.4-2.3-2.4c-1.4,0-2.5,1.1-2.5,2.5v4.1h-0.7v-7.1h0.7v1.3
		c0.5-0.8,1.3-1.5,2.6-1.5c1.8,0,2.9,1.2,2.9,2.9v4.4H140.9z"/>
	<path class="st1" d="M146.3,33.4c-1,0-2.2-0.4-2.9-1l0.4-0.5c0.8,0.6,1.7,0.9,2.6,0.9c1,0,1.7-0.5,1.7-1.4l0,0
		c0-0.8-0.9-1.1-1.9-1.4c-1.2-0.3-2.5-0.7-2.5-2l0,0c0-1.1,1-2,2.4-2c0.9,0,1.8,0.3,2.5,0.8l-0.4,0.6c-0.7-0.4-1.4-0.7-2.2-0.7
		c-1,0-1.6,0.5-1.6,1.2l0,0c0,0.8,1,1.1,2,1.4c1.1,0.3,2.4,0.7,2.4,2l0,0C148.8,32.6,147.7,33.4,146.3,33.4z"/>
	<path class="st1" d="M154,32.8c1.1,0,1.9-0.5,2.5-1.1l0.5,0.4c-0.7,0.8-1.6,1.3-3,1.3c-1.9,0-3.5-1.5-3.5-3.7l0,0
		c0-2.1,1.5-3.7,3.4-3.7c2,0,3.3,1.6,3.3,3.7l0,0c0,0.1,0,0.1,0,0.3h-5.9C151.4,31.8,152.6,32.8,154,32.8z M156.4,29.4
		c-0.1-1.4-0.9-2.8-2.6-2.8c-1.4,0-2.5,1.2-2.6,2.8H156.4z"/>
	<path class="st1" d="M169.4,26.7l-0.6,3.3h1.8v0.7h-1.9l-0.4,2.6h-0.7l0.4-2.6h-2.9l-0.4,2.6H164l0.4-2.6h-1.7V30h1.8l0.6-3.3h-1.8
		V26h1.9l0.4-2.6h0.7l-0.4,2.6h2.9l0.4-2.6h0.7l-0.4,2.6h1.7v0.7H169.4z M165.8,26.7l-0.6,3.3h2.9l0.6-3.3H165.8z"/>
	<path class="st1" d="M173.1,27.3v-1.2h0.9v1.2H173.1z M173.1,33.3v-1.2h0.9v1.2H173.1z"/>
	<path class="st1" d="M185.3,33.5c-2.8,0-4.9-2.2-4.9-5l0,0c0-2.8,2.1-5.1,4.9-5.1c1.8,0,2.8,0.6,3.8,1.6l-0.5,0.5
		c-0.9-0.8-1.8-1.4-3.3-1.4c-2.4,0-4.1,1.9-4.1,4.4l0,0c0,2.5,1.8,4.4,4.1,4.4c1.4,0,2.4-0.5,3.4-1.5l0.5,0.5
		C188.2,32.8,187.1,33.5,185.3,33.5z"/>
	<path class="st1" d="M194.5,33.4c-1.6,0-2.8-0.5-3.9-1.6l0.5-0.5c1.1,1,2.1,1.5,3.5,1.5c1.5,0,2.5-0.8,2.5-1.9l0,0
		c0-1-0.5-1.6-2.8-2.1c-2.4-0.5-3.3-1.3-3.3-2.8l0,0c0-1.5,1.3-2.6,3.2-2.6c1.4,0,2.4,0.4,3.4,1.2l-0.5,0.6
		c-0.9-0.8-1.8-1.1-2.9-1.1c-1.4,0-2.4,0.8-2.4,1.8l0,0c0,1,0.5,1.7,2.9,2.1c2.3,0.5,3.2,1.3,3.2,2.7l0,0
		C197.8,32.3,196.4,33.4,194.5,33.4z"/>
	<path class="st1" d="M204.3,25.8l-0.5-0.4c0.9-1.3,1.8-2.1,3.5-2.1s2.9,1.2,2.9,2.7c0,1.4-0.7,2.3-2.5,3.8l-3,2.7h5.5v0.7h-6.7
		v-0.5l3.7-3.3c1.6-1.5,2.2-2.3,2.2-3.3c0-1.3-1-2.1-2.2-2.1C206,24,205.1,24.6,204.3,25.8z"/>
	<path class="st1" d="M216.1,33.5c-2.5,0-4-2.3-4-5.1s1.6-5.1,4.1-5.1s4,2.3,4,5.1C220.2,31.1,218.6,33.5,216.1,33.5z M216.1,24
		c-2,0-3.3,2.1-3.3,4.4s1.3,4.4,3.3,4.4s3.3-2.1,3.3-4.4S218.2,24,216.1,24z"/>
	<path class="st1" d="M223.7,23.4h0.6v9.9h-0.7v-9.1l-1.9,0.6l-0.2-0.6L223.7,23.4z"/>
	<path class="st1" d="M226.7,29.5v-0.8h3.8v0.8H226.7z"/>
	<path class="st1" d="M236.4,33.5c-2.5,0-4-2.3-4-5.1s1.6-5.1,4.1-5.1s4,2.3,4,5.1C240.5,31.1,238.9,33.5,236.4,33.5z M236.4,24
		c-2,0-3.3,2.1-3.3,4.4s1.3,4.4,3.3,4.4s3.3-2.1,3.3-4.4S238.4,24,236.4,24z"/>
	<path class="st1" d="M246.3,33.5c-2.5,0-4-2.3-4-5.1s1.6-5.1,4.1-5.1s4,2.3,4,5.1C250.4,31.1,248.8,33.5,246.3,33.5z M246.3,24
		c-2,0-3.3,2.1-3.3,4.4s1.3,4.4,3.3,4.4s3.3-2.1,3.3-4.4S248.4,24,246.3,24z"/>
	<path class="st1" d="M252.6,25.8l-0.5-0.4c0.9-1.3,1.8-2.1,3.5-2.1c1.7,0,2.9,1.2,2.9,2.7c0,1.4-0.7,2.3-2.5,3.8l-3,2.7h5.5v0.7
		h-6.7v-0.5l3.7-3.3c1.6-1.5,2.2-2.3,2.2-3.3c0-1.3-1-2.1-2.2-2.1C254.2,24,253.4,24.6,252.6,25.8z"/>
	<path class="st1" d="M263.6,33.5c-1.2,0-2.1-0.5-3-1.2l0.5-0.6c0.8,0.7,1.6,1.1,2.5,1.1c2,0,3.4-2.1,3.3-5.1
		c-0.6,1-1.5,1.9-3.1,1.9c-2,0-3.4-1.3-3.4-3c0-1.8,1.4-3.3,3.4-3.3c1.1,0,1.9,0.4,2.5,1c0.8,0.8,1.2,1.9,1.2,3.8
		C267.5,31.3,265.8,33.5,263.6,33.5z M263.7,24c-1.6,0-2.6,1.2-2.6,2.6s1.1,2.4,2.7,2.4c1.7,0,2.7-1.3,2.7-2.5
		C266.5,25.1,265.4,24,263.7,24z"/>
	<path class="st1" d="M272.5,33.5c-1.2,0-2.1-0.5-3-1.2l0.5-0.6c0.8,0.7,1.6,1.1,2.5,1.1c2,0,3.4-2.1,3.3-5.1
		c-0.6,1-1.5,1.9-3.1,1.9c-2,0-3.4-1.3-3.4-3c0-1.8,1.4-3.3,3.4-3.3c1.1,0,1.9,0.4,2.5,1c0.8,0.8,1.2,1.9,1.2,3.8
		C276.5,31.3,274.8,33.5,272.5,33.5z M272.7,24c-1.6,0-2.6,1.2-2.6,2.6s1.1,2.4,2.7,2.4c1.7,0,2.7-1.3,2.7-2.5
		C275.5,25.1,274.3,24,272.7,24z"/>
	<path class="st1" d="M281.8,33.4c-2.1,0-3.6-1.1-3.6-2.8c0-1.2,0.9-2,2.2-2.4c-1-0.4-1.8-1.1-1.8-2.3c0-1.5,1.6-2.6,3.3-2.6
		s3.3,1,3.3,2.6c0,1.2-0.9,1.9-1.8,2.3c1.2,0.4,2.2,1.3,2.2,2.4C285.5,32.3,283.9,33.4,281.8,33.4z M281.8,28.6
		c-1.6,0-2.9,0.9-2.9,2.1c0,1.1,1.1,2.1,2.9,2.1s2.9-1,2.9-2.1C284.7,29.5,283.4,28.6,281.8,28.6z M281.8,24c-1.4,0-2.5,0.8-2.5,1.9
		c0,1.2,1.2,2,2.5,2s2.5-0.8,2.5-2C284.4,24.8,283.3,24,281.8,24z"/>
	<path class="st1" d="M287.7,25.8l-0.5-0.4c0.9-1.3,1.8-2.1,3.5-2.1s2.9,1.2,2.9,2.7c0,1.4-0.7,2.3-2.5,3.8l-3,2.7h5.5v0.7h-6.7
		v-0.5l3.7-3.3c1.6-1.5,2.2-2.3,2.2-3.3c0-1.3-1-2.1-2.2-2.1C289.3,24,288.5,24.6,287.7,25.8z"/>
</g>
<g class="st0">
	<path class="st1" d="M105.1,42.2v9.1h-0.7v-9.1H101v-0.7h7.6v0.7C108.6,42.2,105.1,42.2,105.1,42.2z"/>
	<path class="st1" d="M110.8,51.3v-9.8h0.7v9.8H110.8z"/>
	<path class="st1" d="M122.2,51.3l-6.9-8.7v8.7h-0.7v-9.8h0.7L122,50v-8.5h0.7v9.8H122.2z"/>
	<path class="st1" d="M135.7,44.7l-0.6,3.3h1.8v0.7H135l-0.4,2.6h-0.7l0.4-2.6h-2.9l-0.4,2.6h-0.7l0.4-2.6H129V48h1.8l0.6-3.3h-1.8
		V44h1.9l0.4-2.6h0.7l-0.4,2.6h2.9l0.4-2.6h0.7l-0.4,2.6h1.7v0.7H135.7z M132.1,44.7l-0.6,3.3h2.9l0.6-3.3H132.1z"/>
	<path class="st1" d="M139.4,45.3v-1.2h0.9v1.2H139.4z M139.4,51.3v-1.2h0.9v1.2H139.4z"/>
	<path class="st1" d="M150.1,51.4c-2.1,0-3.6-1.1-3.6-2.8c0-1.2,0.9-2,2.2-2.4c-1-0.4-1.8-1.1-1.8-2.3c0-1.5,1.6-2.6,3.3-2.6
		s3.3,1,3.3,2.6c0,1.2-0.9,1.9-1.8,2.3c1.2,0.4,2.2,1.3,2.2,2.4C153.8,50.3,152.2,51.4,150.1,51.4z M150.1,46.6
		c-1.6,0-2.9,0.9-2.9,2.1c0,1.1,1.1,2.1,2.9,2.1c1.8,0,2.9-1,2.9-2.1C153,47.5,151.7,46.6,150.1,46.6z M150.1,42
		c-1.4,0-2.5,0.8-2.5,1.9c0,1.2,1.2,2,2.5,2c1.4,0,2.5-0.8,2.5-2C152.7,42.8,151.6,42,150.1,42z"/>
	<path class="st1" d="M156.3,41.5h5.5v0.7h-4.9l-0.2,3.7c0.6-0.3,1.3-0.5,2.2-0.5c1.9,0,3.4,1.2,3.4,3c0,1.9-1.4,3.2-3.4,3.2
		c-1.3,0-2.6-0.7-3.4-1.6l0.5-0.5c0.9,0.9,1.9,1.4,2.9,1.4c1.6,0,2.6-1.1,2.6-2.5s-1.1-2.3-2.7-2.3c-0.9,0-1.6,0.3-2.2,0.6l-0.6-0.4
		L156.3,41.5z"/>
	<path class="st1" d="M164.2,42.2v-0.7h6.1V42l-3.3,3.8c1.9,0.1,3.5,1,3.5,2.8c0,1.7-1.5,2.9-3.2,2.9c-1.6,0-2.8-0.7-3.6-1.8
		l0.6-0.5c0.8,1,1.8,1.6,3.1,1.6s2.4-0.9,2.4-2.2c0-1.4-1.3-2.1-3.1-2.1h-0.5l-0.2-0.4l3.4-3.9C169.4,42.2,164.2,42.2,164.2,42.2z"
		/>
	<path class="st1" d="M172.5,47.5v-0.8h3.8v0.8H172.5z"/>
	<path class="st1" d="M178.6,43.8l-0.5-0.4c0.9-1.3,1.8-2.1,3.5-2.1s2.9,1.2,2.9,2.7c0,1.4-0.7,2.3-2.5,3.8l-3,2.7h5.5v0.7h-6.7
		v-0.5l3.7-3.3c1.6-1.5,2.2-2.3,2.2-3.3c0-1.3-1-2.1-2.2-2.1C180.2,42,179.4,42.6,178.6,43.8z"/>
	<path class="st1" d="M190.4,51.5c-2.5,0-4-2.3-4-5.1s1.6-5.1,4.1-5.1s4,2.3,4,5.1C194.5,49.1,192.9,51.5,190.4,51.5z M190.4,42
		c-2,0-3.3,2.1-3.3,4.4c0,2.3,1.3,4.4,3.3,4.4s3.3-2.1,3.3-4.4S192.5,42,190.4,42z"/>
	<path class="st1" d="M202.7,43c-0.8-0.7-1.5-1-2.4-1c-2,0-3.3,2.1-3.2,5.1c0.6-1,1.5-1.8,3.1-1.8c1.8,0,3.4,1.2,3.4,3
		c0,1.9-1.5,3.2-3.4,3.2c-1,0-1.9-0.4-2.5-1c-0.8-0.8-1.2-1.8-1.2-3.8c0-3,1.6-5.3,4-5.3c1.1,0,2,0.4,2.8,1.1L202.7,43z M200.1,45.9
		c-1.6,0-2.7,1.2-2.7,2.4c0,1.4,1.2,2.5,2.8,2.5s2.6-1.1,2.6-2.5C202.7,46.9,201.6,45.9,200.1,45.9z"/>
	<path class="st1" d="M205.4,47.5v-0.8h3.8v0.8H205.4z"/>
	<path class="st1" d="M215.1,51.5c-2.5,0-4-2.3-4-5.1s1.6-5.1,4.1-5.1s4,2.3,4,5.1C219.1,49.1,217.6,51.5,215.1,51.5z M215.1,42
		c-2,0-3.3,2.1-3.3,4.4c0,2.3,1.3,4.4,3.3,4.4s3.3-2.1,3.3-4.4S217.1,42,215.1,42z"/>
	<path class="st1" d="M225,51.5c-2.5,0-4-2.3-4-5.1s1.6-5.1,4.1-5.1s4,2.3,4,5.1C229.1,49.1,227.5,51.5,225,51.5z M225,42
		c-2,0-3.3,2.1-3.3,4.4c0,2.3,1.3,4.4,3.3,4.4s3.3-2.1,3.3-4.4S227,42,225,42z"/>
	<path class="st1" d="M232.6,41.4h0.6v9.9h-0.7v-9.1l-1.9,0.6l-0.2-0.6L232.6,41.4z"/>
	<path class="st1" d="M235.6,47.5v-0.8h3.8v0.8H235.6z"/>
	<path class="st1" d="M245.3,51.5c-2.5,0-4-2.3-4-5.1s1.6-5.1,4.1-5.1s4,2.3,4,5.1C249.4,49.1,247.8,51.5,245.3,51.5z M245.3,42
		c-2,0-3.3,2.1-3.3,4.4c0,2.3,1.3,4.4,3.3,4.4s3.3-2.1,3.3-4.4S247.3,42,245.3,42z"/>
	<path class="st1" d="M255.2,51.5c-2.5,0-4-2.3-4-5.1s1.6-5.1,4.1-5.1c2.5,0,4,2.3,4,5.1C259.3,49.1,257.7,51.5,255.2,51.5z
		 M255.2,42c-2,0-3.3,2.1-3.3,4.4c0,2.3,1.3,4.4,3.3,4.4c2,0,3.3-2.1,3.3-4.4S257.3,42,255.2,42z"/>
	<path class="st1" d="M265.2,51.5c-2.5,0-4-2.3-4-5.1s1.6-5.1,4.1-5.1s4,2.3,4,5.1C269.2,49.1,267.7,51.5,265.2,51.5z M265.2,42
		c-2,0-3.3,2.1-3.3,4.4c0,2.3,1.3,4.4,3.3,4.4s3.3-2.1,3.3-4.4S267.2,42,265.2,42z"/>
</g>
<g class="st0">
	<path class="st1" d="M5.9,69.5c-3,0-4.9-2.4-4.9-5l0,0c0-2.7,2-5.1,4.9-5.1s4.9,2.4,4.9,5l0,0C10.9,67.1,8.9,69.5,5.9,69.5z
		 M10.1,64.4c0-2.4-1.8-4.4-4.2-4.4s-4.2,2-4.2,4.4l0,0c0,2.4,1.8,4.4,4.2,4.4S10.1,66.9,10.1,64.4L10.1,64.4z"/>
	<path class="st1" d="M15.5,69.4c-1,0-2.2-0.4-2.9-1l0.4-0.5c0.8,0.6,1.7,0.9,2.6,0.9c1,0,1.7-0.5,1.7-1.4l0,0
		c0-0.8-0.9-1.1-1.9-1.4c-1.2-0.3-2.5-0.7-2.5-2l0,0c0-1.1,1-2,2.4-2c0.9,0,1.8,0.3,2.5,0.8l-0.4,0.6c-0.7-0.4-1.4-0.7-2.2-0.7
		c-1,0-1.6,0.5-1.6,1.2l0,0c0,0.8,1,1.1,2,1.4c1.1,0.3,2.4,0.7,2.4,2l0,0C18,68.6,16.9,69.4,15.5,69.4z"/>
	<path class="st1" d="M30.3,69.3v-4.2c0-1.5-0.8-2.4-2.1-2.4c-1.2,0-2.3,0.9-2.3,2.5v4.2h-0.7V65c0-1.5-0.8-2.4-2.1-2.4
		c-1.3,0-2.3,1.1-2.3,2.6v4.1h-0.7v-7.1h0.7v1.3c0.5-0.7,1.1-1.4,2.4-1.4c1.2,0,2,0.7,2.4,1.5c0.5-0.8,1.2-1.5,2.6-1.5
		c1.7,0,2.7,1.2,2.7,3v4.3L30.3,69.3L30.3,69.3z"/>
	<path class="st1" d="M36.5,68.8c1.1,0,1.9-0.5,2.5-1.1l0.5,0.4c-0.7,0.8-1.6,1.3-3,1.3c-1.9,0-3.5-1.5-3.5-3.7l0,0
		c0-2.1,1.5-3.7,3.4-3.7c2,0,3.3,1.6,3.3,3.7l0,0c0,0.1,0,0.1,0,0.3h-5.9C33.8,67.8,35.1,68.8,36.5,68.8z M38.9,65.4
		c-0.1-1.4-0.9-2.8-2.6-2.8c-1.4,0-2.5,1.2-2.6,2.8H38.9z"/>
	<path class="st1" d="M47.1,69.3v-4.2c0-1.5-0.8-2.4-2.3-2.4c-1.4,0-2.5,1.1-2.5,2.5v4.1h-0.7v-7.1h0.7v1.3c0.5-0.8,1.3-1.5,2.6-1.5
		c1.8,0,2.9,1.2,2.9,2.9v4.4H47.1z"/>
	<path class="st1" d="M55.1,69.3v-1.2c-0.5,0.7-1.4,1.4-2.7,1.4s-2.8-0.8-2.8-2.2l0,0c0-1.5,1.3-2.3,3.1-2.3c1,0,1.7,0.1,2.4,0.3V65
		c0-1.4-0.9-2.2-2.4-2.2c-0.9,0-1.6,0.2-2.2,0.6l-0.3-0.6c0.8-0.4,1.6-0.6,2.5-0.6c1.8,0,3,1,3,2.8v4.5h-0.6V69.3z M55.1,65.8
		c-0.6-0.2-1.4-0.3-2.4-0.3c-1.5,0-2.4,0.7-2.4,1.7l0,0c0,1,1,1.6,2.1,1.6c1.5,0,2.7-0.9,2.7-2.2C55.1,66.6,55.1,65.8,55.1,65.8z"/>
	<path class="st1" d="M65.9,69.4c-1.6,0-2.8-0.5-3.9-1.6l0.5-0.5c1.1,1,2.1,1.5,3.5,1.5c1.5,0,2.5-0.8,2.5-1.9l0,0
		c0-1-0.5-1.6-2.8-2.1c-2.4-0.5-3.3-1.3-3.3-2.8l0,0c0-1.5,1.3-2.6,3.2-2.6c1.4,0,2.4,0.4,3.4,1.2l-0.5,0.6
		c-0.9-0.8-1.8-1.1-2.9-1.1c-1.4,0-2.4,0.8-2.4,1.8l0,0c0,1,0.5,1.7,2.9,2.1c2.3,0.5,3.2,1.3,3.2,2.7l0,0
		C69.2,68.4,67.8,69.4,65.9,69.4z"/>
	<path class="st1" d="M73.7,69.4c-1.1,0-2-0.6-2-2v-4.7h-1v-0.6h1v-2.3h0.7v2.3h2.5v0.6h-2.5v4.6c0,1,0.6,1.4,1.4,1.4
		c0.4,0,0.6-0.1,1.1-0.3V69C74.5,69.4,74.2,69.4,73.7,69.4z"/>
	<path class="st1" d="M76.8,69.3v-1.2h0.9v1.2H76.8z"/>
	<path class="st1" d="M89,69.5c-3.1,0-4.9-2.3-4.9-5l0,0c0-2.6,1.9-5.1,4.8-5.1c1.6,0,2.6,0.5,3.6,1.3L92,61.2
		c-0.8-0.7-1.7-1.2-3.2-1.2c-2.4,0-4,2-4,4.4l0,0c0,2.5,1.6,4.4,4.2,4.4c1.2,0,2.4-0.5,3.1-1.1v-2.8h-3.3v-0.7h4V68
		C92,68.8,90.6,69.5,89,69.5z"/>
	<path class="st1" d="M100.6,69.3V68c-0.5,0.8-1.3,1.5-2.6,1.5c-1.8,0-2.9-1.2-2.9-2.9v-4.4h0.7v4.2c0,1.5,0.8,2.4,2.3,2.4
		c1.4,0,2.5-1.1,2.5-2.5v-4.1h0.7v7.1C101.3,69.3,100.6,69.3,100.6,69.3z"/>
	<path class="st1" d="M109.4,69.3v-4.2c0-1.5-0.8-2.4-2.3-2.4c-1.4,0-2.5,1.1-2.5,2.5v4.1h-0.7v-7.1h0.7v1.3
		c0.5-0.8,1.3-1.5,2.6-1.5c1.8,0,2.9,1.2,2.9,2.9v4.4H109.4z"/>
	<path class="st1" d="M112.2,65.5v-0.8h3.8v0.8H112.2z"/>
	<path class="st1" d="M121.4,69.5c-2.1,0-3.7-1.7-3.7-3.7l0,0c0-2,1.6-3.7,3.7-3.7s3.7,1.7,3.7,3.7l0,0
		C125.1,67.7,123.5,69.5,121.4,69.5z M124.3,65.7c0-1.7-1.3-3.1-2.9-3.1c-1.7,0-2.9,1.4-2.9,3.1l0,0c0,1.7,1.3,3.1,2.9,3.1
		C123.1,68.8,124.3,67.4,124.3,65.7L124.3,65.7z"/>
	<path class="st1" d="M130.8,69.5c-1.4,0-2.4-0.8-2.9-1.7v1.5h-0.7V59.1h0.7v4.7c0.6-0.9,1.5-1.8,2.9-1.8c1.7,0,3.5,1.4,3.5,3.7l0,0
		C134.3,68.1,132.5,69.5,130.8,69.5z M133.5,65.7c0-1.9-1.3-3.1-2.8-3.1s-2.9,1.2-2.9,3.1l0,0c0,1.8,1.4,3.1,2.9,3.1
		C132.3,68.8,133.5,67.7,133.5,65.7L133.5,65.7z"/>
	<path class="st1" d="M136.5,69.3h-0.4v-1.2h0.9v1c0,0.9-0.3,1.3-1.2,1.7l-0.2-0.4C136.3,70.2,136.6,69.8,136.5,69.3z"/>
	<path class="st1" d="M143.9,69.3v-9.8h0.7v9.1h5.8v0.7H143.9z"/>
	<path class="st1" d="M157.3,69.3v-1.2c-0.5,0.7-1.4,1.4-2.7,1.4s-2.8-0.8-2.8-2.2l0,0c0-1.5,1.3-2.3,3.1-2.3c1,0,1.7,0.1,2.4,0.3
		V65c0-1.4-0.9-2.2-2.4-2.2c-0.9,0-1.6,0.2-2.2,0.6l-0.3-0.6c0.8-0.4,1.6-0.6,2.5-0.6c1.8,0,3,1,3,2.8v4.5h-0.6V69.3z M157.3,65.8
		c-0.6-0.2-1.4-0.3-2.4-0.3c-1.5,0-2.4,0.7-2.4,1.7l0,0c0,1,1,1.6,2.1,1.6c1.5,0,2.7-0.9,2.7-2.2L157.3,65.8L157.3,65.8z"/>
	<path class="st1" d="M164,69.5c-1.4,0-2.4-0.8-2.9-1.7v3.8h-0.7v-9.4h0.7v1.6c0.6-0.9,1.5-1.8,2.9-1.8c1.7,0,3.5,1.4,3.5,3.7l0,0
		C167.5,68.1,165.8,69.5,164,69.5z M166.8,65.7c0-1.9-1.3-3.1-2.8-3.1s-2.9,1.2-2.9,3.1l0,0c0,1.8,1.4,3.1,2.9,3.1
		C165.5,68.8,166.8,67.7,166.8,65.7L166.8,65.7z"/>
	<path class="st1" d="M174.9,69.3V68c-0.5,0.8-1.3,1.5-2.6,1.5c-1.8,0-2.9-1.2-2.9-2.9v-4.4h0.7v4.2c0,1.5,0.8,2.4,2.3,2.4
		c1.4,0,2.5-1.1,2.5-2.5v-4.1h0.7v7.1C175.6,69.3,174.9,69.3,174.9,69.3z"/>
	<path class="st1" d="M177.9,65.5v-0.8h3.8v0.8H177.9z"/>
	<path class="st1" d="M184.1,69.3v-9.8h0.7v9.1h5.8v0.7H184.1z"/>
	<path class="st1" d="M197.5,69.3v-1.2c-0.5,0.7-1.4,1.4-2.7,1.4s-2.8-0.8-2.8-2.2l0,0c0-1.5,1.3-2.3,3.1-2.3c1,0,1.7,0.1,2.4,0.3
		V65c0-1.4-0.9-2.2-2.4-2.2c-0.9,0-1.6,0.2-2.2,0.6l-0.3-0.6c0.8-0.4,1.6-0.6,2.5-0.6c1.8,0,3,1,3,2.8v4.5h-0.6V69.3z M197.5,65.8
		c-0.6-0.2-1.4-0.3-2.4-0.3c-1.5,0-2.4,0.7-2.4,1.7l0,0c0,1,1,1.6,2.1,1.6c1.5,0,2.7-0.9,2.7-2.2L197.5,65.8L197.5,65.8z"/>
	<path class="st1" d="M204.3,69.5c-1.4,0-2.4-0.8-2.9-1.7v3.8h-0.7v-9.4h0.7v1.6c0.6-0.9,1.5-1.8,2.9-1.8c1.7,0,3.5,1.4,3.5,3.7l0,0
		C207.7,68.1,206,69.5,204.3,69.5z M207,65.7c0-1.9-1.3-3.1-2.8-3.1s-2.9,1.2-2.9,3.1l0,0c0,1.8,1.4,3.1,2.9,3.1
		C205.8,68.8,207,67.7,207,65.7L207,65.7z"/>
	<path class="st1" d="M215.2,69.3V68c-0.5,0.8-1.3,1.5-2.6,1.5c-1.8,0-2.9-1.2-2.9-2.9v-4.4h0.7v4.2c0,1.5,0.8,2.4,2.3,2.4
		c1.4,0,2.5-1.1,2.5-2.5v-4.1h0.7v7.1C215.9,69.3,215.2,69.3,215.2,69.3z"/>
	<path class="st1" d="M227.3,69.5c-2.8,0-4.9-2.2-4.9-5l0,0c0-2.8,2.1-5.1,4.9-5.1c1.8,0,2.8,0.6,3.8,1.6l-0.5,0.5
		c-0.9-0.8-1.8-1.4-3.3-1.4c-2.4,0-4.1,1.9-4.1,4.4l0,0c0,2.5,1.8,4.4,4.1,4.4c1.4,0,2.4-0.5,3.4-1.5l0.5,0.5
		C230.1,68.8,229,69.5,227.3,69.5z"/>
	<path class="st1" d="M233,60.3v-0.9h0.9v0.9H233z M233.1,69.3v-7.1h0.7v7.1H233.1z"/>
	<path class="st1" d="M238.9,69.4c-1.1,0-2-0.6-2-2v-4.7h-1v-0.6h1v-2.3h0.7v2.3h2.5v0.6h-2.5v4.6c0,1,0.6,1.4,1.4,1.4
		c0.4,0,0.6-0.1,1.1-0.3V69C239.7,69.4,239.3,69.4,238.9,69.4z"/>
</g>
<g class="st0">
	<path class="st1" d="M245.5,69.6c-0.6,1.5-1.4,2-2.4,2c-0.5,0-0.9-0.1-1.4-0.3l0.2-0.6c0.4,0.2,0.7,0.3,1.2,0.3
		c0.7,0,1.2-0.4,1.8-1.7l-3.4-7.1h0.8l3,6.4l2.6-6.4h0.8L245.5,69.6z"/>
</g>
<g class="st0">
	<path class="st1" d="M250,69.3h-0.4v-1.2h0.9v1c0,0.9-0.3,1.3-1.2,1.7l-0.2-0.4C249.8,70.2,250,69.8,250,69.3z"/>
	<path class="st1" d="M261.8,69.5c-2.8,0-4.9-2.2-4.9-5l0,0c0-2.8,2.1-5.1,4.9-5.1c1.8,0,2.8,0.6,3.8,1.6l-0.5,0.5
		c-0.9-0.8-1.8-1.4-3.3-1.4c-2.4,0-4.1,1.9-4.1,4.4l0,0c0,2.5,1.8,4.4,4.1,4.4c1.4,0,2.4-0.5,3.4-1.5l0.5,0.5
		C264.6,68.8,263.5,69.5,261.8,69.5z"/>
	<path class="st1" d="M270.4,68.8c1.1,0,1.9-0.5,2.5-1.1l0.5,0.4c-0.7,0.8-1.6,1.3-3,1.3c-1.9,0-3.5-1.5-3.5-3.7l0,0
		c0-2.1,1.5-3.7,3.4-3.7c2,0,3.3,1.6,3.3,3.7l0,0c0,0.1,0,0.1,0,0.3h-5.9C267.7,67.8,269,68.8,270.4,68.8z M272.8,65.4
		c-0.1-1.4-0.9-2.8-2.6-2.8c-1.4,0-2.5,1.2-2.6,2.8H272.8z"/>
	<path class="st1" d="M279.2,69.5c-1.4,0-2.4-0.8-2.9-1.7v1.5h-0.7V59.1h0.7v4.7c0.6-0.9,1.5-1.8,2.9-1.8c1.7,0,3.5,1.4,3.5,3.7l0,0
		C282.7,68.1,280.9,69.5,279.2,69.5z M281.9,65.7c0-1.9-1.3-3.1-2.8-3.1s-2.9,1.2-2.9,3.1l0,0c0,1.8,1.4,3.1,2.9,3.1
		C280.7,68.8,281.9,67.7,281.9,65.7L281.9,65.7z"/>
	<path class="st1" d="M290.1,69.3V68c-0.5,0.8-1.3,1.5-2.6,1.5c-1.8,0-2.9-1.2-2.9-2.9v-4.4h0.7v4.2c0,1.5,0.8,2.4,2.3,2.4
		c1.4,0,2.5-1.1,2.5-2.5v-4.1h0.7v7.1C290.8,69.3,290.1,69.3,290.1,69.3z"/>
	<path class="st1" d="M301.1,65.7h-2.6v3.7h-0.7v-9.8h3.6c2.2,0,3.6,1.1,3.6,3l0,0C304.9,64.6,303.2,65.7,301.1,65.7z M304.2,62.5
		c0-1.6-1.2-2.4-3-2.4h-2.8V65h2.7C303,65,304.2,64,304.2,62.5L304.2,62.5z"/>
	<path class="st1" d="M312.4,69.3v-4.2c0-1.5-0.8-2.4-2.3-2.4c-1.4,0-2.5,1.1-2.5,2.5v4.1h-0.7V59.1h0.7v4.4
		c0.5-0.8,1.3-1.5,2.6-1.5c1.8,0,2.9,1.2,2.9,2.9v4.4H312.4z"/>
	<path class="st1" d="M315.5,60.3v-0.9h0.9v0.9H315.5z M315.6,69.3v-7.1h0.7v7.1H315.6z"/>
	<path class="st1" d="M319.1,69.3V59.1h0.7v10.2C319.8,69.3,319.1,69.3,319.1,69.3z"/>
	<path class="st1" d="M322.5,60.3v-0.9h0.9v0.9H322.5z M322.6,69.3v-7.1h0.7v7.1H322.6z"/>
	<path class="st1" d="M329.6,69.5c-1.4,0-2.4-0.8-2.9-1.7v3.8H326v-9.4h0.7v1.6c0.6-0.9,1.5-1.8,2.9-1.8c1.7,0,3.5,1.4,3.5,3.7l0,0
		C333.1,68.1,331.3,69.5,329.6,69.5z M332.3,65.7c0-1.9-1.3-3.1-2.8-3.1s-2.9,1.2-2.9,3.1l0,0c0,1.8,1.4,3.1,2.9,3.1
		C331.1,68.8,332.3,67.7,332.3,65.7L332.3,65.7z"/>
	<path class="st1" d="M338.8,69.5c-1.4,0-2.4-0.8-2.9-1.7v3.8h-0.7v-9.4h0.7v1.6c0.6-0.9,1.5-1.8,2.9-1.8c1.7,0,3.5,1.4,3.5,3.7l0,0
		C342.3,68.1,340.6,69.5,338.8,69.5z M341.6,65.7c0-1.9-1.3-3.1-2.8-3.1s-2.9,1.2-2.9,3.1l0,0c0,1.8,1.4,3.1,2.9,3.1
		C340.3,68.8,341.6,67.7,341.6,65.7L341.6,65.7z"/>
	<path class="st1" d="M344.5,60.3v-0.9h0.9v0.9H344.5z M344.6,69.3v-7.1h0.7v7.1H344.6z"/>
	<path class="st1" d="M353.4,69.3v-4.2c0-1.5-0.8-2.4-2.3-2.4c-1.4,0-2.5,1.1-2.5,2.5v4.1h-0.7v-7.1h0.7v1.3
		c0.5-0.8,1.3-1.5,2.6-1.5c1.8,0,2.9,1.2,2.9,2.9v4.4H353.4z"/>
	<path class="st1" d="M359.6,68.8c1.1,0,1.9-0.5,2.5-1.1l0.5,0.4c-0.7,0.8-1.6,1.3-3,1.3c-1.9,0-3.5-1.5-3.5-3.7l0,0
		c0-2.1,1.5-3.7,3.4-3.7c2,0,3.3,1.6,3.3,3.7l0,0c0,0.1,0,0.1,0,0.3h-5.9C356.9,67.8,358.2,68.8,359.6,68.8z M362,65.4
		c-0.1-1.4-0.9-2.8-2.6-2.8c-1.4,0-2.5,1.2-2.6,2.8H362z"/>
	<path class="st1" d="M367,69.4c-1,0-2.2-0.4-2.9-1l0.4-0.5c0.8,0.6,1.7,0.9,2.6,0.9c1,0,1.7-0.5,1.7-1.4l0,0c0-0.8-0.9-1.1-1.9-1.4
		c-1.2-0.3-2.5-0.7-2.5-2l0,0c0-1.1,1-2,2.4-2c0.9,0,1.8,0.3,2.5,0.8l-0.4,0.6c-0.7-0.4-1.4-0.7-2.2-0.7c-1,0-1.6,0.5-1.6,1.2l0,0
		c0,0.8,1,1.1,2,1.4c1.1,0.3,2.4,0.7,2.4,2l0,0C369.5,68.6,368.4,69.4,367,69.4z"/>
</g>
</svg>
