<?xml version="1.0" encoding="utf-8"?>
<!-- Generator: Adobe Illustrator 24.1.1, SVG Export Plug-In . SVG Version: 6.00 Build 0)  -->
<svg version="1.1" id="Layer_1" xmlns="http://www.w3.org/2000/svg" xmlns:xlink="http://www.w3.org/1999/xlink" x="0px" y="0px"
	 viewBox="0 0 365 46.6" style="enable-background:new 0 0 365 46.6;" xml:space="preserve">
<style type="text/css">
	.st0{enable-background:new    ;}
	.st1{fill:#7C7D7D;}
</style>
<g class="st0">
	<path class="st1" d="M7.3,4.2v13.7H6.3V4.2H1.1v-1h11.3v1H7.3z"/>
	<path class="st1" d="M23.3,17.9v-6.4c0-2.2-1.2-3.7-3.4-3.7c-2.1,0-3.7,1.6-3.7,3.8v6.2h-1V2.5h1v6.6c0.7-1.3,1.9-2.2,3.9-2.2
		c2.7,0,4.3,1.8,4.3,4.4v6.6H23.3z"/>
	<path class="st1" d="M28,4.4V2.9h1.3v1.4H28z M28.2,17.9V7.1h1v10.7H28.2z"/>
	<path class="st1" d="M36.7,18.1c-1.6,0-3.3-0.6-4.4-1.6l0.6-0.8c1.2,0.9,2.5,1.4,3.8,1.4c1.4,0,2.6-0.8,2.6-2v0
		c0-1.3-1.3-1.7-2.8-2.1c-1.7-0.5-3.7-1-3.7-2.9v0c0-1.7,1.4-3,3.5-3c1.3,0,2.7,0.5,3.8,1.2L39.6,9c-1-0.7-2.2-1.1-3.3-1.1
		c-1.5,0-2.4,0.8-2.4,1.9v0c0,1.2,1.4,1.6,3,2.1c1.7,0.5,3.5,1.1,3.5,3v0C40.4,16.8,38.8,18.1,36.7,18.1z"/>
	<path class="st1" d="M61.1,17.9h-0.9l-3.2-9.2l-3.2,9.2H53L49.1,7.1h1.2l3.2,9.4l3.2-9.4h0.8l3.2,9.4L64,7.1h1.1L61.1,17.9z"/>
	<path class="st1" d="M68.1,4.4V2.9h1.3v1.4H68.1z M68.2,17.9V7.1h1v10.7H68.2z"/>
	<path class="st1" d="M73.4,17.9V2.5h1v15.3H73.4z"/>
	<path class="st1" d="M78.7,17.9V2.5h1v15.3H78.7z"/>
	<path class="st1" d="M93.5,18.1c-1.6,0-3.3-0.6-4.4-1.6l0.6-0.8c1.2,0.9,2.5,1.4,3.8,1.4c1.4,0,2.6-0.8,2.6-2v0
		c0-1.3-1.3-1.7-2.8-2.1c-1.7-0.5-3.7-1-3.7-2.9v0c0-1.7,1.4-3,3.5-3c1.3,0,2.7,0.5,3.8,1.2L96.4,9c-1-0.7-2.2-1.1-3.3-1.1
		c-1.5,0-2.4,0.8-2.4,1.9v0c0,1.2,1.4,1.6,3,2.1c1.7,0.5,3.5,1.1,3.5,3v0C97.2,16.8,95.6,18.1,93.5,18.1z"/>
	<path class="st1" d="M105,17.1c1.7,0,2.8-0.7,3.7-1.7l0.7,0.6c-1.1,1.2-2.4,2-4.4,2c-2.8,0-5.2-2.2-5.2-5.6v0
		c0-3.1,2.2-5.6,5.1-5.6c3,0,4.9,2.4,4.9,5.6v0c0,0.1,0,0.2,0,0.4h-8.9C101,15.6,102.9,17.1,105,17.1z M108.6,12
		c-0.1-2.2-1.4-4.2-3.8-4.2c-2.1,0-3.8,1.8-3.9,4.2H108.6z"/>
</g>
<g class="st0">
	<path class="st1" d="M118.8,8.1c-2.5,0-4.6,1.9-4.6,5.4v4.4h-1V7.1h1v3c0.8-1.9,2.6-3.3,4.7-3.2v1.1H118.8z"/>
</g>
<g class="st0">
	<path class="st1" d="M126.3,17.9h-0.9l-4.8-10.8h1.2l4.1,9.6l4.1-9.6h1.2L126.3,17.9z"/>
</g>
<g class="st0">
	<path class="st1" d="M138.4,17.1c1.7,0,2.8-0.7,3.7-1.7l0.7,0.6c-1.1,1.2-2.4,2-4.4,2c-2.8,0-5.2-2.2-5.2-5.6v0
		c0-3.1,2.2-5.6,5.1-5.6c3,0,4.9,2.4,4.9,5.6v0c0,0.1,0,0.2,0,0.4h-8.9C134.4,15.6,136.3,17.1,138.4,17.1z M142,12
		c-0.1-2.2-1.4-4.2-3.8-4.2c-2.1,0-3.8,1.8-3.9,4.2H142z"/>
	<path class="st1" d="M159.7,17.9v-1.8c-0.7,1-2.1,2-4.1,2c-2,0-4.1-1.1-4.1-3.4v0c0-2.2,1.9-3.5,4.7-3.5c1.5,0,2.5,0.2,3.5,0.5
		v-0.5c0-2.2-1.3-3.3-3.5-3.3c-1.3,0-2.4,0.4-3.4,0.9l-0.4-0.9c1.2-0.5,2.3-0.9,3.8-0.9c2.8,0,4.5,1.4,4.5,4.2v6.7H159.7z
		 M159.8,12.6c-0.9-0.2-2.1-0.5-3.6-0.5c-2.3,0-3.5,1-3.5,2.5v0c0,1.6,1.5,2.5,3.1,2.5c2.2,0,4.1-1.3,4.1-3.3V12.6z"/>
	<path class="st1" d="M167.9,18.1c-1.6,0-3.3-0.6-4.4-1.6l0.6-0.8c1.2,0.9,2.5,1.4,3.8,1.4c1.4,0,2.6-0.8,2.6-2v0
		c0-1.3-1.3-1.7-2.8-2.1c-1.7-0.5-3.7-1-3.7-2.9v0c0-1.7,1.4-3,3.5-3c1.3,0,2.7,0.5,3.8,1.2L170.8,9c-1-0.7-2.2-1.1-3.3-1.1
		c-1.5,0-2.4,0.8-2.4,1.9v0c0,1.2,1.4,1.6,3,2.1c1.7,0.5,3.5,1.1,3.5,3v0C171.6,16.8,170,18.1,167.9,18.1z"/>
</g>
<g class="st0">
	<path class="st1" d="M186.1,18.2c-0.9,2.2-2,3-3.6,3c-0.8,0-1.4-0.1-2.1-0.5l0.4-0.9c0.6,0.3,1,0.4,1.8,0.4c1.1,0,1.8-0.7,2.6-2.5
		L180,7.1h1.2l4.5,9.6l3.9-9.6h1.1L186.1,18.2z"/>
</g>
<g class="st0">
	<path class="st1" d="M198.1,18.1c-3.2,0-5.5-2.6-5.5-5.6v0c0-3,2.3-5.6,5.5-5.6c3.2,0,5.5,2.6,5.5,5.6v0
		C203.6,15.5,201.3,18.1,198.1,18.1z M202.5,12.5c0-2.6-1.9-4.6-4.4-4.6c-2.5,0-4.4,2.1-4.4,4.6v0c0,2.6,1.9,4.6,4.4,4.6
		C200.7,17.1,202.5,15.1,202.5,12.5L202.5,12.5z"/>
	<path class="st1" d="M214.8,17.9v-2c-0.7,1.3-1.9,2.2-3.9,2.2c-2.7,0-4.3-1.8-4.3-4.4V7.1h1v6.4c0,2.2,1.2,3.7,3.4,3.7
		c2.1,0,3.7-1.6,3.7-3.8V7.1h1v10.7H214.8z"/>
	<path class="st1" d="M225.4,8.1c-2.5,0-4.6,1.9-4.6,5.4v4.4h-1V7.1h1v3c0.8-1.9,2.6-3.3,4.7-3.2v1.1H225.4z"/>
	<path class="st1" d="M239.1,18.1c-3.2,0-5.5-2.6-5.5-5.6v0c0-3,2.3-5.6,5.5-5.6c3.2,0,5.5,2.6,5.5,5.6v0
		C244.7,15.5,242.3,18.1,239.1,18.1z M243.5,12.5c0-2.6-1.9-4.6-4.4-4.6c-2.5,0-4.4,2.1-4.4,4.6v0c0,2.6,1.9,4.6,4.4,4.6
		C241.7,17.1,243.5,15.1,243.5,12.5L243.5,12.5z"/>
	<path class="st1" d="M251.7,3.4c-1.5,0-2.2,0.9-2.2,2.7v1h3.7v0.9h-3.7v9.8h-1V8.1h-1.6V7.1h1.6v-1c0-2.3,1.2-3.6,3.2-3.6
		c0.7,0,1.1,0.1,1.6,0.3v1C252.6,3.5,252.2,3.4,251.7,3.4z"/>
	<path class="st1" d="M259.3,3.4c-1.5,0-2.2,0.9-2.2,2.7v1h3.7v0.9h-3.7v9.8h-1V8.1h-1.6V7.1h1.6v-1c0-2.3,1.2-3.6,3.2-3.6
		c0.7,0,1.1,0.1,1.6,0.3v1C260.2,3.5,259.8,3.4,259.3,3.4z"/>
	<path class="st1" d="M263.1,4.4V2.9h1.3v1.4H263.1z M263.2,17.9V7.1h1v10.7H263.2z"/>
	<path class="st1" d="M273,18.1c-3.1,0-5.5-2.6-5.5-5.6v0c0-3,2.4-5.6,5.5-5.6c2,0,3.3,0.9,4.3,2l-0.7,0.8c-0.9-0.9-2-1.8-3.6-1.8
		c-2.4,0-4.3,2-4.3,4.6v0c0,2.6,2,4.6,4.4,4.6c1.5,0,2.7-0.8,3.6-1.8l0.7,0.6C276.3,17.2,275,18.1,273,18.1z"/>
	<path class="st1" d="M280.3,4.4V2.9h1.3v1.4H280.3z M280.4,17.9V7.1h1v10.7H280.4z"/>
	<path class="st1" d="M292.8,17.9v-1.8c-0.7,1-2.1,2-4.1,2c-2,0-4.1-1.1-4.1-3.4v0c0-2.2,1.9-3.5,4.7-3.5c1.5,0,2.5,0.2,3.5,0.5
		v-0.5c0-2.2-1.3-3.3-3.5-3.3c-1.3,0-2.4,0.4-3.4,0.9l-0.4-0.9c1.2-0.5,2.3-0.9,3.8-0.9c2.8,0,4.5,1.4,4.5,4.2v6.7H292.8z
		 M292.9,12.6c-0.9-0.2-2.1-0.5-3.6-0.5c-2.3,0-3.5,1-3.5,2.5v0c0,1.6,1.5,2.5,3.1,2.5c2.2,0,4.1-1.3,4.1-3.3V12.6z"/>
	<path class="st1" d="M297.7,17.9V2.5h1v15.3H297.7z"/>
	<path class="st1" d="M312.6,18c-1.7,0-3-0.9-3-2.9v-7h-1.6V7.1h1.6V3.7h1v3.4h3.8v0.9h-3.8V15c0,1.5,0.9,2.1,2.1,2.1
		c0.5,0,1-0.1,1.6-0.4v1C313.8,17.9,313.3,18,312.6,18z"/>
	<path class="st1" d="M317.5,4.4V2.9h1.3v1.4H317.5z M317.6,17.9V7.1h1v10.7H317.6z"/>
	<path class="st1" d="M327.4,18.1c-3.1,0-5.5-2.6-5.5-5.6v0c0-3,2.4-5.6,5.5-5.6c2,0,3.3,0.9,4.3,2L331,9.6c-0.9-0.9-2-1.8-3.6-1.8
		c-2.4,0-4.3,2-4.3,4.6v0c0,2.6,2,4.6,4.4,4.6c1.5,0,2.7-0.8,3.6-1.8l0.7,0.6C330.7,17.2,329.4,18.1,327.4,18.1z"/>
</g>
<g class="st0">
	<path class="st1" d="M342.6,17.9l-4.2-5.2l-2.6,2.6v2.6h-1V2.5h1V14l6.6-6.9h1.4l-4.7,4.7l4.8,6H342.6z"/>
</g>
<g class="st0">
	<path class="st1" d="M350.8,17.1c1.7,0,2.8-0.7,3.7-1.7l0.7,0.6c-1.1,1.2-2.4,2-4.4,2c-2.8,0-5.2-2.2-5.2-5.6v0
		c0-3.1,2.2-5.6,5.1-5.6c3,0,4.9,2.4,4.9,5.6v0c0,0.1,0,0.2,0,0.4h-8.9C346.8,15.6,348.7,17.1,350.8,17.1z M354.4,12
		c-0.1-2.2-1.4-4.2-3.8-4.2c-2.1,0-3.8,1.8-3.9,4.2H354.4z"/>
	<path class="st1" d="M362.1,18c-1.7,0-3-0.9-3-2.9v-7h-1.6V7.1h1.6V3.7h1v3.4h3.8v0.9h-3.8V15c0,1.5,0.9,2.1,2.1,2.1
		c0.5,0,1-0.1,1.6-0.4v1C363.3,17.9,362.8,18,362.1,18z"/>
</g>
<g class="st0">
	<path class="st1" d="M7.9,43.2c-1.7,0-3-0.9-3-2.9v-7H3.3v-0.9h1.6v-3.4h1v3.4h3.8v0.9H5.9v6.9c0,1.5,0.9,2.1,2.1,2.1
		c0.5,0,1-0.1,1.6-0.4v1C9.1,43.1,8.5,43.2,7.9,43.2z"/>
</g>
<g class="st0">
	<path class="st1" d="M18.4,33.3c-2.5,0-4.6,1.9-4.6,5.4V43h-1V32.3h1v3c0.8-1.9,2.6-3.3,4.7-3.2v1.1H18.4z"/>
</g>
<g class="st0">
	<path class="st1" d="M28.1,43v-1.8c-0.7,1-2.1,2-4.1,2c-2,0-4.1-1.1-4.1-3.4v0c0-2.2,1.9-3.5,4.7-3.5c1.5,0,2.5,0.2,3.5,0.5v-0.5
		c0-2.2-1.3-3.3-3.5-3.3c-1.3,0-2.4,0.4-3.4,0.9l-0.4-0.9c1.2-0.5,2.3-0.9,3.8-0.9c2.8,0,4.5,1.4,4.5,4.2V43H28.1z M28.1,37.8
		c-0.9-0.2-2.1-0.5-3.6-0.5c-2.3,0-3.5,1-3.5,2.5v0c0,1.6,1.5,2.5,3.1,2.5c2.2,0,4.1-1.3,4.1-3.3V37.8z"/>
	<path class="st1" d="M40.9,43v-6.4c0-2.2-1.2-3.7-3.4-3.7c-2.1,0-3.7,1.6-3.7,3.8V43h-1V32.3h1v2c0.7-1.3,1.9-2.2,3.9-2.2
		c2.7,0,4.3,1.8,4.3,4.4V43H40.9z"/>
	<path class="st1" d="M49.1,43.3c-1.6,0-3.3-0.6-4.4-1.6l0.6-0.8c1.2,0.9,2.5,1.4,3.8,1.4c1.4,0,2.6-0.8,2.6-2v0
		c0-1.3-1.3-1.7-2.8-2.1c-1.7-0.5-3.7-1-3.7-2.9v0c0-1.7,1.4-3,3.5-3c1.3,0,2.7,0.5,3.8,1.2L52,34.2c-1-0.7-2.2-1.1-3.3-1.1
		c-1.5,0-2.4,0.8-2.4,1.9v0c0,1.2,1.4,1.6,3,2.1c1.7,0.5,3.5,1.1,3.5,3v0C52.8,42,51.2,43.3,49.1,43.3z"/>
	<path class="st1" d="M63.4,43v-1.8c-0.7,1-2.1,2-4.1,2c-2,0-4.1-1.1-4.1-3.4v0c0-2.2,1.9-3.5,4.7-3.5c1.5,0,2.5,0.2,3.5,0.5v-0.5
		c0-2.2-1.3-3.3-3.5-3.3c-1.3,0-2.4,0.4-3.4,0.9l-0.4-0.9c1.2-0.5,2.3-0.9,3.8-0.9c2.8,0,4.5,1.4,4.5,4.2V43H63.4z M63.4,37.8
		c-0.9-0.2-2.1-0.5-3.6-0.5c-2.3,0-3.5,1-3.5,2.5v0c0,1.6,1.5,2.5,3.1,2.5c2.2,0,4.1-1.3,4.1-3.3V37.8z"/>
	<path class="st1" d="M72.8,43.3c-3.1,0-5.5-2.6-5.5-5.6v0c0-3,2.4-5.6,5.5-5.6c2,0,3.3,0.9,4.3,2l-0.7,0.8c-0.9-0.9-2-1.8-3.6-1.8
		c-2.4,0-4.3,2-4.3,4.6v0c0,2.6,2,4.6,4.4,4.6c1.5,0,2.7-0.8,3.6-1.8l0.7,0.6C76.1,42.4,74.8,43.3,72.8,43.3z"/>
	<path class="st1" d="M83.7,43.2c-1.7,0-3-0.9-3-2.9v-7h-1.6v-0.9h1.6v-3.4h1v3.4h3.8v0.9h-3.8v6.9c0,1.5,0.9,2.1,2.1,2.1
		c0.5,0,1-0.1,1.6-0.4v1C84.9,43.1,84.4,43.2,83.7,43.2z"/>
	<path class="st1" d="M88.5,29.5v-1.4h1.3v1.4H88.5z M88.7,43V32.3h1V43H88.7z"/>
	<path class="st1" d="M98.5,43.3c-3.2,0-5.5-2.6-5.5-5.6v0c0-3,2.3-5.6,5.5-5.6c3.2,0,5.5,2.6,5.5,5.6v0
		C104,40.7,101.7,43.3,98.5,43.3z M102.9,37.7c0-2.6-1.9-4.6-4.4-4.6c-2.5,0-4.4,2.1-4.4,4.6v0c0,2.6,1.9,4.6,4.4,4.6
		C101.1,42.3,102.9,40.3,102.9,37.7L102.9,37.7z"/>
	<path class="st1" d="M115.3,43v-6.4c0-2.2-1.2-3.7-3.4-3.7c-2.1,0-3.7,1.6-3.7,3.8V43h-1V32.3h1v2c0.7-1.3,1.9-2.2,3.9-2.2
		c2.7,0,4.3,1.8,4.3,4.4V43H115.3z"/>
</g>
<g class="st0">
	<path class="st1" d="M132,33.3c-2.5,0-4.6,1.9-4.6,5.4V43h-1V32.3h1v3c0.8-1.9,2.6-3.3,4.7-3.2v1.1H132z"/>
</g>
<g class="st0">
	<path class="st1" d="M139.1,42.3c1.7,0,2.8-0.7,3.7-1.7l0.7,0.6c-1.1,1.2-2.4,2-4.4,2c-2.8,0-5.2-2.2-5.2-5.6v0
		c0-3.1,2.2-5.6,5.1-5.6c3,0,4.9,2.4,4.9,5.6v0c0,0.1,0,0.2,0,0.4h-8.9C135.1,40.8,137,42.3,139.1,42.3z M142.7,37.2
		c-0.1-2.2-1.4-4.2-3.8-4.2c-2.1,0-3.8,1.8-3.9,4.2H142.7z"/>
	<path class="st1" d="M151.6,43.3c-3.1,0-5.5-2.6-5.5-5.6v0c0-3,2.4-5.6,5.5-5.6c2,0,3.3,0.9,4.3,2l-0.7,0.8c-0.9-0.9-2-1.8-3.6-1.8
		c-2.4,0-4.3,2-4.3,4.6v0c0,2.6,2,4.6,4.4,4.6c1.5,0,2.7-0.8,3.6-1.8l0.7,0.6C154.8,42.4,153.5,43.3,151.6,43.3z"/>
	<path class="st1" d="M163.1,42.3c1.7,0,2.8-0.7,3.7-1.7l0.7,0.6c-1.1,1.2-2.4,2-4.4,2c-2.8,0-5.2-2.2-5.2-5.6v0
		c0-3.1,2.2-5.6,5.1-5.6c3,0,4.9,2.4,4.9,5.6v0c0,0.1,0,0.2,0,0.4h-8.9C159,40.8,161,42.3,163.1,42.3z M166.6,37.2
		c-0.1-2.2-1.4-4.2-3.8-4.2c-2.1,0-3.8,1.8-3.9,4.2H166.6z"/>
	<path class="st1" d="M170.8,29.5v-1.4h1.3v1.4H170.8z M170.9,43V32.3h1V43H170.9z"/>
	<path class="st1" d="M181.4,43.3c-2.1,0-3.5-1.2-4.4-2.6v5.7h-1V32.3h1v2.4c0.9-1.4,2.3-2.6,4.4-2.6c2.6,0,5.2,2.1,5.2,5.6v0
		C186.6,41.2,184,43.3,181.4,43.3z M185.5,37.7c0-2.8-2-4.6-4.2-4.6c-2.2,0-4.4,1.9-4.4,4.6v0c0,2.8,2.1,4.6,4.4,4.6
		C183.7,42.3,185.5,40.6,185.5,37.7L185.5,37.7z"/>
	<path class="st1" d="M193.4,43.2c-1.7,0-3-0.9-3-2.9v-7h-1.6v-0.9h1.6v-3.4h1v3.4h3.8v0.9h-3.8v6.9c0,1.5,0.9,2.1,2.1,2.1
		c0.5,0,1-0.1,1.6-0.4v1C194.6,43.1,194.1,43.2,193.4,43.2z"/>
	<path class="st1" d="M198,43v-1.8h1.4V43H198z"/>
	<path class="st1" d="M220.1,43v-6.9h-9.4V43h-1.1V28.4h1.1v6.8h9.4v-6.8h1.1V43H220.1z"/>
	<path class="st1" d="M232.7,43v-1.8c-0.7,1-2.1,2-4.1,2c-2,0-4.1-1.1-4.1-3.4v0c0-2.2,1.9-3.5,4.7-3.5c1.5,0,2.5,0.2,3.5,0.5v-0.5
		c0-2.2-1.3-3.3-3.5-3.3c-1.3,0-2.4,0.4-3.4,0.9l-0.4-0.9c1.2-0.5,2.3-0.9,3.8-0.9c2.8,0,4.5,1.4,4.5,4.2V43H232.7z M232.7,37.8
		c-0.9-0.2-2.1-0.5-3.6-0.5c-2.3,0-3.5,1-3.5,2.5v0c0,1.6,1.5,2.5,3.1,2.5c2.2,0,4.1-1.3,4.1-3.3V37.8z"/>
	<path class="st1" d="M242.8,43.3c-2.1,0-3.5-1.2-4.4-2.6v5.7h-1V32.3h1v2.4c0.9-1.4,2.3-2.6,4.4-2.6c2.6,0,5.2,2.1,5.2,5.6v0
		C248,41.2,245.4,43.3,242.8,43.3z M246.9,37.7c0-2.8-2-4.6-4.2-4.6c-2.2,0-4.4,1.9-4.4,4.6v0c0,2.8,2.1,4.6,4.4,4.6
		C245.1,42.3,246.9,40.6,246.9,37.7L246.9,37.7z"/>
</g>
<g class="st0">
	<path class="st1" d="M257,43.3c-2.1,0-3.5-1.2-4.4-2.6v5.7h-1V32.3h1v2.4c0.9-1.4,2.3-2.6,4.4-2.6c2.6,0,5.2,2.1,5.2,5.6v0
		C262.2,41.2,259.6,43.3,257,43.3z M261.1,37.7c0-2.8-2-4.6-4.2-4.6c-2.2,0-4.4,1.9-4.4,4.6v0c0,2.8,2.1,4.6,4.4,4.6
		C259.2,42.3,261.1,40.6,261.1,37.7L261.1,37.7z"/>
</g>
<g class="st0">
	<path class="st1" d="M270.2,43.4c-0.9,2.2-2,3-3.6,3c-0.8,0-1.4-0.1-2.1-0.5l0.4-0.9c0.6,0.3,1,0.4,1.8,0.4c1.1,0,1.8-0.7,2.6-2.5
		l-5.1-10.6h1.2l4.5,9.6l3.9-9.6h1.1L270.2,43.4z"/>
	<path class="st1" d="M289.4,43.3c-2.1,0-3.5-1.2-4.4-2.6v5.7h-1V32.3h1v2.4c0.9-1.4,2.3-2.6,4.4-2.6c2.6,0,5.2,2.1,5.2,5.6v0
		C294.6,41.2,292,43.3,289.4,43.3z M293.5,37.7c0-2.8-2-4.6-4.2-4.6c-2.2,0-4.4,1.9-4.4,4.6v0c0,2.8,2.1,4.6,4.4,4.6
		C291.6,42.3,293.5,40.6,293.5,37.7L293.5,37.7z"/>
	<path class="st1" d="M298,43V27.7h1V43H298z"/>
</g>
<g class="st0">
	<path class="st1" d="M310.4,43v-1.8c-0.7,1-2.1,2-4.1,2c-2,0-4.1-1.1-4.1-3.4v0c0-2.2,1.9-3.5,4.7-3.5c1.5,0,2.5,0.2,3.5,0.5v-0.5
		c0-2.2-1.3-3.3-3.5-3.3c-1.3,0-2.4,0.4-3.4,0.9l-0.4-0.9c1.2-0.5,2.3-0.9,3.8-0.9c2.8,0,4.5,1.4,4.5,4.2V43H310.4z M310.4,37.8
		c-0.9-0.2-2.1-0.5-3.6-0.5c-2.3,0-3.5,1-3.5,2.5v0c0,1.6,1.5,2.5,3.1,2.5c2.2,0,4.1-1.3,4.1-3.3V37.8z"/>
</g>
<g class="st0">
	<path class="st1" d="M319.8,43.4c-0.9,2.2-2,3-3.6,3c-0.8,0-1.4-0.1-2.1-0.5l0.4-0.9c0.6,0.3,1,0.4,1.8,0.4c1.1,0,1.8-0.7,2.6-2.5
		l-5.1-10.6h1.2l4.5,9.6l3.9-9.6h1.1L319.8,43.4z"/>
	<path class="st1" d="M327.3,29.5v-1.4h1.3v1.4H327.3z M327.5,43V32.3h1V43H327.5z"/>
	<path class="st1" d="M340.7,43v-6.4c0-2.2-1.2-3.7-3.4-3.7c-2.1,0-3.7,1.6-3.7,3.8V43h-1V32.3h1v2c0.7-1.3,1.9-2.2,3.9-2.2
		c2.7,0,4.3,1.8,4.3,4.4V43H340.7z"/>
	<path class="st1" d="M350.1,46.5c-1.8,0-3.4-0.5-4.9-1.6l0.6-0.8c1.3,1,2.8,1.5,4.3,1.5c2.5,0,4.2-1.4,4.2-4.2v-1.6
		c-0.9,1.3-2.4,2.5-4.5,2.5c-2.6,0-5.1-2-5.1-5v0c0-3.1,2.6-5.1,5.1-5.1c2.1,0,3.6,1.1,4.5,2.4v-2.1h1v9
		C355.4,44.6,353.2,46.5,350.1,46.5z M354.4,37.1c0-2.5-2.2-4.1-4.4-4.1c-2.2,0-4.1,1.6-4.1,4.1v0c0,2.4,1.9,4.1,4.1,4.1
		C352.2,41.3,354.4,39.6,354.4,37.1L354.4,37.1z"/>
	<path class="st1" d="M359.3,43v-1.8h1.4V43H359.3z M360.6,28.4v1.5l-0.3,9.4h-0.6l-0.3-9.4v-1.5H360.6z"/>
</g>
</svg>
